<?xml version="1.0" encoding="UTF-8" standalone="no"?>
<svg
   xmlns:dc="http://purl.org/dc/elements/1.1/"
   xmlns:cc="http://creativecommons.org/ns#"
   xmlns:rdf="http://www.w3.org/1999/02/22-rdf-syntax-ns#"
   xmlns:svg="http://www.w3.org/2000/svg"
   xmlns="http://www.w3.org/2000/svg"
   width="200mm"
   height="200mm"
   viewBox="0 0 200 200"
   version="1.1"
   id="svg8">
  <defs
     id="defs2" />
  <metadata
     id="metadata5">
    <rdf:RDF>
      <cc:Work
         rdf:about="">
        <dc:format>image/svg+xml</dc:format>
        <dc:type
           rdf:resource="http://purl.org/dc/dcmitype/StillImage" />
        <dc:title></dc:title>
      </cc:Work>
    </rdf:RDF>
  </metadata>
  <g
     transform="translate(0.5647935)"
     id="g4567">
    <g
       transform="translate(0,-97)"
       id="layer1">
      <path
         transform="scale(0.26458333)"
         id="path207"
         d=""
         style="fill:#000000;fill-opacity:1;stroke:#000000;stroke-width:0.07464234;stroke-miterlimit:4;stroke-dasharray:none;stroke-opacity:1" />
      <path
         transform="scale(0.26458333)"
         id="path231"
         d=""
         style="fill:#000000;fill-opacity:1;stroke:#000000;stroke-width:0.07464234;stroke-miterlimit:4;stroke-dasharray:none;stroke-opacity:1" />
      <g
         transform="matrix(1.1337013,0,0,1.1337013,-17.292165,93.701913)"
         id="g1094">
        <path
           style="fill:#000000;fill-opacity:1;stroke-width:0.99999994"
           d="m 529.93555,111.79297 c -12.66218,-0.18569 -20.96736,2.77629 -36.07032,12.45703 -10.06412,6.45095 -14.60906,14.368 -15.44921,26.91406 -0.18407,2.75 -0.7548,9.93246 -1.26954,15.96094 -0.55423,6.49113 -0.57106,11.92026 -0.041,13.31445 0.49228,1.29484 0.89453,3.68108 0.89453,5.30274 0,1.62166 0.40636,3.7305 0.90234,4.68554 0.49599,0.95505 1.2835,3.51742 1.75,5.69532 0.65125,3.04036 1.41791,4.09349 3.30469,4.53515 2.09722,0.4909 3.00027,2.15191 6.16211,11.33203 2.03766,5.91622 4.2504,11.41282 4.91602,12.21485 1.93167,2.32754 -0.0861,1.6852 -2.48438,-0.79102 -1.19852,-1.23749 -2.87008,-2.7 -3.71484,-3.25 -8.1049,-5.27675 -11.01227,-7.41241 -15.25782,-11.21094 -9.68279,-8.66321 -25.97392,-16.72356 -41.07812,-20.32226 -25.54481,-6.08627 -81.40191,-6.81009 -110,-1.42578 -9.23946,1.73956 -29.7004,6.79044 -37,9.13281 -6.63227,2.12824 -23.49498,8.97653 -36.5,14.82422 -5.775,2.59672 -15.59044,6.71167 -21.8125,9.14453 -10.15797,3.97181 -22.06203,8.01068 -32.19141,10.83594 -8.25139,2.30146 -22.48047,8.64648 -22.48047,8.64648 0,0 -22.58194,10.33507 -52.49609,35.03516 l -2.25976,3.10547 c -2.13517,2.9348 -6.6972,7.44518 -19.63477,19.41211 -3.079559,2.84851 -5.301703,5.4776 -4.9375,5.84179 1.408233,1.40822 5.312479,-0.99568 12.79102,-7.87109 8.05191,-7.40258 21.28657,-15.97433 26.52148,-17.17773 2.58631,-0.59452 1.68485,0.6021 -6.53125,8.66992 -5.24166,5.14711 -13.32731,14.01323 -17.96875,19.70312 -8.084481,9.91068 -8.575813,10.32358 -11.701172,9.81641 -4.383991,-0.71142 -5.187122,1.05392 -1.732422,3.80859 2.478184,1.97602 2.872764,3.05821 3.244141,8.89063 0.250205,3.92919 0.874781,6.63867 1.529297,6.63867 0.608303,0 0.105176,0.70046 -1.117188,1.55664 -1.222375,0.85618 -2.222656,2.20619 -2.222656,3 0,2.37944 13.55449,1.96627 18.26172,-0.55664 5.04076,-2.70172 10.40883,-2.62805 12.67773,0.17383 1.70781,2.10905 1.99607,2.13737 9.66016,0.91015 4.34496,-0.69573 10.11384,-1.56137 12.82031,-1.92382 4.31226,-0.57744 5.04234,-1.02422 5.90039,-3.60938 0.71475,-2.15342 0.65307,-3.05967 -0.22851,-3.35351 -0.66422,-0.22149 -3.23421,-2.15524 -5.71094,-4.29883 -2.47673,-2.1436 -4.92486,-3.89844 -5.44141,-3.89844 -1.64736,0 -1.00742,-2.75906 0.81055,-3.49414 0.9625,-0.38918 6.475,-0.94016 12.25,-1.22461 8.98685,-0.44266 11.55632,-0.19364 17.82812,1.72266 4.03032,1.23133 7.55707,2.83656 7.8379,3.56836 1.1068,2.88426 7.66555,3.69609 30.8496,3.8125 18.52259,0.093 23.52436,0.40344 24.9043,1.54882 0.94967,0.7883 5.18011,1.75282 9.40235,2.14453 16.40911,1.52228 34.61786,4.91002 37.41796,6.96094 1.50747,1.10412 4.08828,2.27624 5.73438,2.60547 3.20751,0.6415 3.18347,2.35547 -0.0332,2.35547 -3.16136,0 -2.22481,2.53182 2.02734,5.47851 2.18292,1.5128 4.21087,3.51199 4.50586,4.44141 0.29499,0.92942 2.89667,2.52468 5.78125,3.54492 2.88459,1.02021 6.13192,2.45793 7.2168,3.19532 1.08486,0.73738 2.65986,1.353 3.5,1.36914 0.84011,0.0151 3.02723,1.39474 4.86132,3.0625 l 3.33594,3.03125 -1.65234,3.68945 c -0.90879,2.02866 -2.14677,4.69688 -2.75,5.92969 -0.80524,1.64566 -0.78656,2.9206 0.0684,4.79687 0.64043,1.40557 1.16406,4.55868 1.16406,7.00781 -1.03238,9.40019 10.7963,0.46638 14.80859,-2.1914 2.81214,-1.90836 4.42819,-2.34621 6.92969,-1.87696 3.18948,0.59838 3.26172,0.53192 3.26172,-2.96874 0,-3.20229 0.20072,-3.47187 1.89258,-2.56641 1.04043,0.55684 3.33963,3.61014 5.11133,6.78515 6.27456,9.9835 10.91928,12.20257 14.19531,10.26563 -4.39617,0.60182 -10.70057,-6.39523 -15.27734,-18.20508 -1.20612,-3.22508 -3.02737,-6.30985 -4.04688,-6.85547 -2.41826,-1.29422 -4.86621,-6.09782 -4.9082,-9.63281 -0.0406,-3.42081 -2.25619,-6.19491 -7.6836,-9.62109 -2.26875,-1.43222 -4.44024,-3.6325 -4.82617,-4.89063 -0.38592,-1.25813 -1.20989,-2.91959 -1.83008,-3.6914 -0.62018,-0.77182 -1.18365,-3.37791 -1.25195,-5.79102 -0.0683,-2.41311 -0.35416,-4.61768 -0.63672,-4.90039 -0.28254,-0.28252 -4.33932,0.41105 -9.01367,1.54102 -9.99,2.41499 -12.72461,2.55787 -12.72461,0.66406 0,-1.73174 -4.98086,-2.74659 -15.5,-3.15625 -4.4,-0.17137 -9.8,-0.78449 -12,-1.36328 -2.2,-0.5788 -9.1,-1.35661 -15.33398,-1.72852 -10.86064,-0.64781 -11.37383,-0.77911 -12.2754,-3.15039 -0.91106,-2.3963 -1.00399,-2.41944 -2.91992,-0.68555 -1.64519,1.48887 -2.40702,1.59625 -4.52148,0.63282 -1.39864,-0.63723 -5.69717,-1.15821 -9.55274,-1.15821 -3.85557,0 -9.01157,-0.50338 -11.45703,-1.11914 -3.21097,-0.80885 -4.81157,-0.81823 -5.75976,-0.0312 -0.8618,0.71516 -2.49238,0.78981 -4.7461,0.2168 -1.88846,-0.48019 -4.66541,-1.14957 -6.16992,-1.48633 -2.08637,-0.46711 -2.6796,-1.14034 -2.5,-2.83984 0.21085,-1.99506 -0.23431,-2.24045 -4.26367,-2.33985 -2.475,-0.0611 -5.74087,0.59854 -7.25781,1.46485 -3.05048,1.74217 -2.52817,2.05717 -11.39649,-6.86524 -3.11969,-3.13871 -3.60581,-3.32981 -4.69922,-1.85156 -0.68823,0.93048 -3.81512,2.10143 -7.18164,2.68945 -3.28022,0.57298 -8.66484,1.94249 -11.96484,3.04297 -3.3,1.10049 -7.125,2.24313 -8.5,2.53906 -1.375,0.29605 -3.99274,1.45867 -5.81641,2.58399 l -3.31445,2.04492 5.31445,2.77734 c 5.35067,2.79523 6.85088,5.35024 3.51758,5.99219 -0.98954,0.19057 -2.79249,-0.30455 -4.00586,-1.09961 -1.29674,-0.84948 -3.54398,-1.24881 -5.45117,-0.96875 -2.78633,0.40895 -3.24414,0.17821 -3.24414,-1.63672 0,-2.61063 -3.0838,-2.81197 -8.48633,-0.55468 -2.05161,0.85719 -3.95781,1.32933 -4.23633,1.05078 -0.27851,-0.27852 0.44446,-2.47071 1.60743,-4.87305 2.51774,-5.20097 2.6981,-7.17483 0.57812,-6.36133 -2.08312,0.79937 -2.89132,-1.70836 -1.42969,-4.43945 1.29525,-2.42018 10.07683,-13.93555 10.62696,-13.93555 0.1867,0 0.28582,0.3375 0.2207,0.75 -0.31948,2.02345 0.34005,1.94797 2.78125,-0.31445 1.76898,-1.63956 3.31551,-2.261 4.60547,-1.85156 1.39539,0.44288 3.0388,-0.45426 5.83789,-3.1875 4.64046,-4.53132 4.99742,-6.0203 0.94336,-3.92383 -3.86356,1.99793 -3.83845,2.00839 -3.66406,-1.45899 0.10987,-2.18464 1.68813,-4.5404 5.88281,-8.77929 3.15305,-3.1863 5.73242,-6.28153 5.73242,-6.87891 0,-0.59738 0.95058,-2.29531 2.11328,-3.77344 2.619,-3.32951 1.90389,-4.29584 -1.51953,-2.05273 -3.02619,1.98281 -5.59375,1.33713 -5.59375,-1.40625 0,-2.36585 9.26387,-10.90136 12.79297,-11.78711 1.40335,-0.35222 5.28611,-2.21207 8.62891,-4.13281 10.30802,-5.92287 20.8078,-10.85251 35.59374,-16.71094 13.28964,-5.26556 16.80397,-6.22028 13.75782,-3.74023 -2.39915,1.95329 -20.26709,11.05708 -28.84766,14.69726 C 181.78998,247.56477 174,252.74767 174,254.71094 c 0,0.49633 1.2375,0.40854 2.75,-0.19532 25.72953,-10.27223 25.88292,-10.31613 25.44336,-7.14257 -0.37983,2.74227 1.42828,6.29101 3.20508,6.29101 0.73002,0 3.07671,-1.39491 5.21484,-3.09961 2.13812,-1.7047 5.54784,-3.95018 7.57813,-4.99023 2.03029,-1.04005 6.75529,-4.64838 10.5,-8.01758 3.74471,-3.3692 8.74555,-7.38298 11.11328,-8.91992 2.36773,-1.53693 5.74273,-4.18891 7.5,-5.89258 10.52746,-10.20632 12.82015,-11.79376 25.05273,-17.35742 15.02366,-6.83311 42.26478,-14.97169 57.50781,-17.17969 16.38869,-2.37396 35.78103,-3.20246 56.63477,-2.42187 33.34069,1.248 49.58876,4.2812 65.92773,12.31054 9.28789,4.56428 15.82428,9.41643 33.51954,24.88672 11.21865,9.80803 13.75449,10.62777 13.24414,4.27735 -0.1694,-2.10789 -1.57216,-6.14219 -3.11719,-8.96485 -1.54507,-2.82266 -3.79658,-8.28086 -5.00391,-12.13086 -2.29368,-7.31415 -4.36259,-10.63508 -7.33593,-11.77344 -2.1433,-0.82055 -1.72778,-4.82287 1.84179,-17.72656 1.35938,-4.9141 2.56281,-12.59752 2.85156,-18.21289 0.42373,-8.2419 0.96708,-10.66521 3.59571,-16 6.31018,-12.80667 7.63134,-14.45364 13.57226,-16.91601 4.4699,-1.85268 5.64572,-2.83391 6.09571,-5.08399 0.47603,-2.37999 1.04615,-2.78711 3.88476,-2.78711 1.96335,0 3.6794,-0.63586 4.19141,-1.55078 0.5517,-0.98578 3.3906,-1.90834 7.80078,-2.53711 1.65686,-0.23622 3.32465,-0.35982 4.99414,-0.375 11.6864,-0.10627 23.42888,5.10589 31.6875,14.29492 3.838,4.27036 5.2702,7.81068 2,4.94336 -5.82297,-5.10557 -12.94991,-6.10508 -23.33008,-3.27148 -2.98118,0.81381 -7.55743,1.97034 -10.16992,2.57031 -2.61252,0.59997 -4.75,1.63392 -4.75,2.29883 0,0.66491 1.97909,3.15297 4.39844,5.52734 2.81549,2.7632 4.33796,5.03845 5.46679,8.3125 0.0961,0.33306 0.19931,0.67043 0.32227,1.01758 0.0693,0.22812 0.14209,0.44323 0.20898,0.68164 0.87901,3.1327 2.2592,6.57265 3.06836,7.64258 2.46743,3.26244 1.7885,4.30095 -4.96484,7.59375 -7.75643,3.7819 -8.18775,5.49313 -2.70703,11.1582 0.22884,0.26447 0.45918,0.50852 0.69141,0.75391 2.02384,2.26457 4.1952,5.67023 5.01953,7.93945 3.38653,9.32245 5.32801,16.13619 6.01171,21.10742 0.38835,2.8235 1.86833,7.377 3.29102,10.11914 2.05157,3.95434 2.6761,6.81766 3.01172,13.8418 0.50351,10.53114 -1.27156,23.95373 -3.81836,28.88672 -3.279,6.35122 -15.47656,20.46757 -20.54688,23.77734 -2.7237,1.77801 -8.45508,6.05296 -12.73437,9.5 -10.31161,8.30612 -17.67299,12.63413 -31.63086,18.59766 -11.29432,4.82551 -23.99231,8.15987 -33.08789,8.68945 -4.25979,0.24802 -7.61808,1.29225 -11,3.41797 -0.825,0.51855 -2.68406,1.18863 -4.13086,1.49024 -1.44676,0.30172 -2.84714,1.37637 -3.11133,2.38672 -0.59569,2.27784 -9.15007,7.16056 -17.6875,10.0957 -3.53578,1.21565 -7.36085,2.71468 -8.5,3.33203 -1.13918,0.61735 -4.77029,1.89884 -8.07031,2.84766 -10.5806,3.04214 -20.8815,6.94455 -22.7168,8.60547 -2.6417,2.39069 -2.17007,3.58692 1.2168,3.08984 1.64999,-0.24302 3,-0.23532 3,0.0156 0,0.25085 -2.02498,2.34166 -4.5,4.64649 l -4.5,4.1914 v 13.2793 c 0.43171,4.36168 0.46888,7.93496 0.20312,10.8125 0.67994,-2.86989 1.10948,-6.07731 1.28321,-9.28906 l 0.72851,-14.57617 6.64258,-5.50977 c 6.31658,-5.23854 13.20121,-9.35742 15.64063,-9.35742 1.70963,0 31.41418,-14.92332 36.27148,-18.22266 7.25193,-4.92586 16.41383,-8.66166 23.73047,-9.67578 9.73871,-1.34978 15.70954,-2.73363 20.17773,-4.67578 2.10248,-0.91389 6.70349,-2.73365 10.22461,-4.04492 9.57049,-3.56402 21.67203,-10.55393 30.09766,-17.38281 6.37958,-5.17059 10.5,-8.4375 10.5,-8.4375 6.73299,-4.47452 13.01711,-10.2424 20.06055,-20.31641 7.04344,-10.07401 6.73895,-15.09084 7.95898,-22.55078 0,-1.99154 0.89775,-12.34255 0.82031,-10.33985 -0.0488,1.26493 0.33582,-6.01327 -0.45898,-7.82031 -0.60487,-1.375 -1.49557,-5.80405 -3.05859,-9.19336 -1.56299,-3.38932 -3.29154,-8.56432 -3.8418,-11.5 -0.5503,-2.93568 -2.40961,-9.61289 -4.13281,-14.83789 -1.71504,-5.20014 -2.77068,-7.84833 -4.29688,-9.98047 2.55998,1.03609 4.99836,0.56072 9.23633,1.04297 7.52081,0.8558 14.23309,2.4774 18.71289,4.51758 1.65003,0.75144 4.12501,1.84735 5.5,2.43555 1.37499,0.58819 3.61021,1.70259 4.9668,2.47656 3.06901,1.75097 20.4805,14.42215 18.2832,11.99414 2.88752,1.90523 8.62502,6.17628 12.75,9.49023 4.12501,3.31396 9.17021,7.1453 11.21289,8.51368 10.99196,7.3634 36.05261,34.93639 44.54102,49.00781 1.99067,3.3 4.93164,6.80078 4.93164,6.80078 1.63385,1.4213 3.48486,3.91141 5.11523,5.68555 3.96947,2.68161 4.9204,4.53431 9.93164,5.89062 1.83776,-2.62359 1.76544,-3.45095 0.16602,-4.43945 -0.60613,-0.37459 -3.9249,-2.70073 -4.70117,-4.55859 -3.65685,-3.8118 -5.91904,-7.53796 -8.16211,-10.19922 -2.24308,-2.66127 -3.95322,-3.6791 -7.56641,-9.92969 -3.15281,-5.0875 -8.68667,-13.075 -12.29687,-17.75 -7.57747,-9.81233 -34.18333,-37.21988 -41.94727,-43.21094 -2.90147,-2.23894 -5.05546,-4.29013 -4.78711,-4.55859 0.95335,-0.95335 24.21652,17.38571 33.9375,26.7539 15.8496,15.27433 31.95502,37.1847 35,41.58594 3.04494,4.40124 4.95675,6.18815 5.6543,9.00781 0.86271,2.26915 5.62509,5.10146 6.72656,4 1.0292,-1.02921 -4.9572,-10.29746 -7.42383,-13.61328 -1.14886,-2.66095 -5.12606,-9.48684 -9.25391,-12.38281 -2.56818,-3.78944 -8.07622,-10.15867 -15.09374,-18.91211 -9.18875,-11.46171 -26.86892,-29.60283 -29.49415,-30.26172 -1.24849,-0.31335 -3.21609,-1.65771 -4.37304,-2.98828 -1.15692,-1.33058 -2.76816,-2.41992 -3.58008,-2.41992 -1.7887,0 -8.28059,-3.5187 -11.03711,-5.98242 -1.09999,-0.98316 -3.12501,-2.12246 -4.5,-2.53125 -4.07297,-1.21088 -9.5718,-4.22784 -19.83008,-10.87891 -12.8787,-8.35005 -12.26242,-8.03129 -11.5039,-5.9082 0.35406,0.99107 1.02859,2.30191 1.49804,2.91406 0.5915,0.77134 0.0824,0.96518 -1.65625,0.63281 -1.64583,-0.30051 -1.60744,0.71236 -0.5039,2.51953 -1.99915,-1.35209 -3.69256,-2.11924 -4.88477,-2.00585 -4.55648,-6.70766 -6.91324,-5.75977 -4.09961,-5.75977 1.61375,0 1.90175,-0.46677 1.43555,-2.32422 -0.3642,-1.45102 -0.0176,-2.79256 0.92187,-3.57227 0.8278,-0.6869 1.23747,-1.94791 0.91016,-2.80078 -0.33955,-0.88481 0.0922,-1.93484 1.00781,-2.44726 1.15355,-0.64566 1.49522,-1.94656 1.21289,-4.62696 -0.21592,-2.05048 -0.41898,-4.07583 -0.44922,-4.50195 -0.0317,-0.42611 -1.1836,-1.20379 -2.55859,-1.72656 -1.37499,-0.52277 -2.5,-1.73298 -2.5,-2.68945 0,-1.62311 -0.11048,-1.62782 -1.66602,-0.0723 -0.91664,0.91667 -1.66796,3.03865 -1.66796,4.71484 0,2.87301 -0.22237,3.04688 -3.87891,3.04688 -4.79607,0 -8.78711,-3.52672 -8.78711,-7.76367 0,-4.12484 1.95419,-6.19729 6.50391,-6.89844 4.40779,-0.67928 6.49609,-1.91708 6.49609,-3.85156 0,-1.6538 -2.92136,-2.67905 -7.14648,-2.65235 5.58079,-0.8703 6.46083,-0.70655 11.01953,1.60352 2.78026,1.40886 5.53787,3.46176 6.12695,4.5625 1.03763,1.93879 4,2.82557 4,1.19727 0,-2.34166 -6.51856,-10.52124 -11.20117,-14.05665 -9.36155,-7.06802 -15.82835,-9.42428 -27.26758,-9.93164 -0.88616,-0.0393 -1.75156,-0.0657 -2.5957,-0.0781 z M 370.20312,387.39453 c -1.02987,4.3469 -2.65963,7.87568 -5.0039,9.26172 2.54694,-0.34867 4.44908,-3.25415 5.0039,-9.26172 z M 570.39258,145.67578 c -1.89343,-0.0121 -2.21117,0.8255 -3.1211,8.23633 -0.88493,7.20726 -0.45466,7.3334 0.60743,9.45508 1.06209,2.12168 2.5211,2.05363 3.62109,3.09179 1.09999,1.03818 3.76105,2.9408 5.91406,4.22852 3.90305,2.33442 3.91269,2.3359 3.35547,0.20508 -0.4989,-1.90782 -0.24459,-2.07392 2.37109,-1.55078 1.61152,0.32228 4.37666,1.94011 6.14454,3.5957 2.61293,2.44699 2.80944,2.88137 1.04882,2.32617 -1.19123,-0.37565 -2.41826,-0.27425 -2.72656,0.22461 -0.94344,1.5265 2.55735,3.88922 9.78906,6.60547 3.79325,1.42475 8.01748,3.71083 9.38672,5.08008 2.71847,2.71847 4.81044,3.19095 5.47461,1.23828 0.26759,-0.78619 2.43256,0.47385 5.83399,3.39648 2.97452,2.55578 5.57956,4.48572 5.78906,4.28711 0.20939,-0.19861 -0.3741,-1.95182 -1.29688,-3.89648 -0.80582,-1.28197 -2.37719,-2.47143 -3.08114,-2.99136 -0.64223,-0.47434 -3.55896,-2.76672 -5.49126,-3.83853 -1.93231,-1.07181 -5.82761,-4.15593 -5.82761,-4.15593 -1.23352,-0.7529 -6.31599,-3.96677 -9.3285,-5.80129 -3.01251,-1.83452 -4.3457,-2.75 -4.3457,-2.75 -1.09544,-0.54198 -6.78395,-4.70462 -8.84961,-8.81055 -1.29736,-2.57878 -3.74312,-7.43995 -5.43555,-10.80273 -3.06198,-6.08398 -4.73598,-7.34003 -9.83203,-7.37305 z m -77.32813,20.89453 c -0.31097,-0.0816 -0.72999,0.28171 -1.33593,0.82617 -1.74324,1.56645 -1.90865,2.70209 -1.45704,10.03125 0.28014,4.54595 1.08033,8.95311 1.77735,9.79297 2.34251,2.82271 2.96016,-0.0999 2.30078,-10.87695 -0.44451,-7.26467 -0.60102,-9.59384 -1.28516,-9.77344 z m -353.7832,101.69141 c 0.50715,-0.0623 0.70878,0.14936 0.70313,0.625 -0.0325,2.70344 -4.9892,6.62258 -10.91993,8.63476 -1.88928,0.64097 -4.13928,1.76741 -5,2.50196 -2.14941,1.83435 -5.06445,2.77759 -5.06445,1.63867 0,-0.99655 12.29254,-9.56983 17.75,-12.37891 1.21177,-0.62372 2.0241,-0.95921 2.53125,-1.02148 z m 0.23633,15.82226 c 0.37709,-0.10335 0.48242,0.22605 0.48242,0.94336 0,1.66216 -7.92449,10.93941 -7.97461,9.33594 -0.0503,-1.60951 2.852,-6.26431 5.37891,-8.625 1.08665,-1.01516 1.73619,-1.55094 2.11328,-1.6543 z m 21.6582,35.68555 c -6.54306,-0.0587 -14.25127,0.56767 -15.32422,1.64063 -1.53377,1.53377 1.65659,2.77177 11.95117,4.63867 10.93999,1.98399 11.75824,1.93191 13.58204,-0.85156 2.08716,-3.18543 2.11875,-3.08295 -1.37305,-4.5293 -1.40228,-0.58085 -4.9101,-0.86319 -8.83594,-0.89844 z m 21.24805,8.42188 c -4.93545,-0.0555 -5.95606,0.95114 -0.79297,2.38476 2.12844,0.59097 4.22539,1.07709 4.66016,1.08008 1.81334,0.0128 6.70898,4.51978 6.70898,6.17578 0,1.14758 0.98977,2.00316 2.75,2.37695 4.71658,1.00188 20.65175,6.68307 22.72266,8.10157 1.08487,0.74309 3.16356,1.35156 4.61914,1.35156 1.45557,0 6.6428,0.7204 11.52734,1.60156 4.88454,0.88112 12.48086,1.95917 16.88086,2.39453 8.96935,0.88751 38.56588,0.17731 39.79688,-0.95508 1.06202,-0.977 -5.11286,-5.60514 -10.64063,-7.9746 -5.48318,-2.35038 -6.48844,-3.80141 -3.4707,-5.01172 2.56379,-1.02826 1.82295,-1.33262 -2.68555,-1.10547 -1.65,0.0831 -4.96835,-0.54608 -7.375,-1.39844 -2.40665,-0.8524 -6.17486,-1.55078 -8.37305,-1.55078 -3.43926,0 -3.8232,0.20922 -2.75195,1.5 0.68469,0.82499 2.07419,1.5 3.08789,1.5 1.66593,0 4.42973,2.09404 10.51758,7.96875 1.15788,1.11734 3.18288,2.03932 4.5,2.04687 1.31712,0.008 3.0576,0.4353 3.86719,0.94727 2.55546,1.61609 -1.41672,2.37709 -5.45313,1.04492 -2.06135,-0.68024 -5.25038,-0.89032 -7.57226,-0.49804 -2.92895,0.49485 -4.68566,0.23563 -6.50586,-0.95704 -2.81855,-1.84679 -21.59332,-5.55273 -28.12891,-5.55273 -3.9013,0 -4.58159,-0.3884 -7.33789,-4.19336 -1.67122,-2.30706 -2.80058,-4.78204 -2.50781,-5.5 0.29276,-0.71792 0.80678,-1.98165 1.14062,-2.80664 0.51996,-1.28485 -1.16497,-1.50025 -11.75,-1.50781 -6.79635,-0.004 -16.37138,-0.46725 -21.27734,-1.0293 -2.43077,-0.27847 -4.5111,-0.4151 -6.15625,-0.43359 z m 145.92383,39.74414 c 0.56164,-0.026 1.12043,0.21259 1.88476,0.64062 2.36602,1.32503 9.76758,10.38135 9.76758,11.95117 0,1.0249 -3.41299,2.1022 -6.72461,2.1211 -1.43351,0.009 -2.75507,1.04271 -3.71875,2.90625 -0.82241,1.59038 -2.97117,3.47225 -4.77539,4.18359 -1.80421,0.71135 -3.61875,1.47415 -4.03125,1.69336 -1.05141,0.5585 -0.93495,-0.94193 0.36328,-4.66602 0.93178,-2.6729 0.82958,-3.50926 -0.63086,-5.12304 -1.47894,-1.63419 -1.56256,-2.37017 -0.54687,-4.82227 0.65936,-1.59182 2.73503,-4.38463 4.61328,-6.20508 1.91807,-1.85907 2.86276,-2.63636 3.79883,-2.67968 z m -12.0625,4.43359 c -0.70138,-0.0835 -1.1742,0.91207 -4.89454,8.79297 -1.55784,3.29998 -5.47376,10.25673 -8.70312,15.45898 -3.22935,5.20226 -7.42089,12.53482 -9.31445,16.29493 -1.89355,3.7601 -5.41516,9.5146 -7.82422,12.7871 -7.2846,9.89541 -7.55883,11.24784 -8.02149,39.45899 -0.22551,13.75 -0.57965,27.69998 -0.78711,31 -0.20745,3.29998 -0.0207,7.01251 0.41602,8.25 0.62024,1.75759 1.56499,2.25 4.31836,2.25 2.98458,0 3.52735,-0.34482 3.53906,-2.25 0.0276,-4.55342 1.17771,-6.93384 3.10547,-6.42969 1.37702,0.36008 1.83127,-0.0605 1.79688,-1.66797 -0.0253,-1.18325 0.0961,-3.02013 0.26953,-4.08203 0.22182,-1.3581 -0.42701,-2.12016 -2.18555,-2.5664 -2.36041,-0.59902 -2.48904,-0.98559 -2.31836,-6.91797 0.22655,-7.87336 0.84075,-9.7256 2.71289,-8.17188 1.59143,1.3208 2.60547,-0.45029 2.60547,-4.55078 0,-1.36044 1.52516,-5.34582 3.38867,-8.85742 2.46718,-4.64916 3.72746,-8.77617 4.63672,-15.18164 0.77867,-5.48553 2.06882,-10.11971 3.42773,-12.31055 1.19856,-1.93228 3.24768,-6.43869 4.55469,-10.01367 1.30701,-3.57502 4.0466,-8.97502 6.08594,-12 2.03934,-3.02502 4.72883,-7.47372 5.97852,-9.88672 2.07612,-4.00872 2.13152,-4.49043 0.63867,-5.58203 -0.89861,-0.65707 -1.93722,-3.18335 -2.3086,-5.61328 -0.37137,-2.4299 -1.03866,-4.88239 -1.48242,-5.45117 -0.44377,-0.56882 -0.3481,-2.81884 0.21289,-5 1.40298,-5.45501 1.52029,-7.33487 0.47657,-7.67579 -0.11971,-0.0391 -0.22403,-0.0721 -0.32422,-0.084 z m 41.875,25.00391 c -1.42898,-0.0417 -2.53197,0.0803 -2.6875,0.33203 -0.20739,0.33554 0.69397,5.07526 2.00195,10.5332 3.67979,15.35497 5.3013,23.89962 7.00391,36.9043 2.29115,17.50042 2.82645,18.98411 8.3164,23.05273 2.58792,1.91796 8.08007,5.15286 12.20508,7.18946 13.91184,6.86868 36.90495,19.45886 38.04297,20.83007 1.87404,2.25804 0.11267,3.44727 -5.10156,3.44727 -5.30635,0 -6.30872,1.03474 -2.69141,2.7793 l 2.25,1.08593 -2.55859,0.0684 c -1.40739,0.0372 -3.4324,0.72766 -4.5,1.53516 -1.78727,1.35186 -1.5252,1.46976 3.30859,1.5 3.77749,0.0229 5.25,-0.35073 5.25,-1.33008 0,-0.92009 1.86317,-1.55709 5.75,-1.9668 6.42051,-0.6768 9.38541,-1.10609 20.25,-2.9375 l 7.5,-1.26562 -4.89844,-2.39453 c -2.69442,-1.3177 -6.29441,-3.61252 -8,-5.09961 -1.70562,-1.48709 -4.06408,-3.00448 -5.24023,-3.3711 -1.17619,-0.3668 -3.36596,-1.80594 -4.86719,-3.19726 -1.5857,-1.46956 -3.37448,-2.28226 -4.26758,-1.93945 -0.86335,0.33127 -2.53755,-0.34949 -3.81836,-1.55274 -2.99943,-2.81786 -10.44395,-7.92621 -17.96093,-12.32422 -7.45747,-4.3632 -10.18905,-7.20704 -10.61719,-11.05664 -0.23441,-2.10727 -1.34481,-3.61276 -3.83008,-5.19336 -1.92499,-1.2243 -4.73613,-3.18479 -6.24609,-4.35547 -1.67872,-1.30155 -3.81554,-2.00355 -5.5,-1.80664 -2.24134,0.26215 -2.71999,-0.0504 -2.57032,-1.67773 0.1013,-1.09999 -0.6464,-5.15002 -1.66211,-9 C 370.63985,427.13486 367,409.36302 367,406.76172 c 0,-1.10914 -0.78751,-3.5697 -1.75,-5.4668 -1.45856,-2.87486 -2.38641,-3.51127 -5.57422,-3.82422 -0.5259,-0.0516 -1.0393,-0.0838 -1.51562,-0.0977 z"
           transform="scale(0.26458333)"
           id="path64" />
        <path
           style="fill:#000000;fill-opacity:1;stroke:#000000;stroke-width:0.07464234;stroke-miterlimit:4;stroke-dasharray:none;stroke-opacity:1"
           d="m 304.65763,594.1895 c -1.62537,-0.50823 -2.67576,-1.45852 -5.6846,-5.14295 -4.04194,-4.9495 -7.13819,-9.87339 -7.53344,-11.98023 -0.22029,-1.17426 1.09728,-2.24329 3.84337,-3.11835 4.01051,-1.27798 12.65587,-1.5214 15.83647,-0.44591 1.11386,0.37665 1.80681,0.8832 2.20298,1.61041 0.42757,0.78485 0.38555,3.42263 -0.12238,7.68278 -0.54047,4.53315 -0.81038,8.574 -0.66834,10.00605 l 0.12255,1.23557 -0.60419,0.21062 c -0.85252,0.2972 -6.39555,0.25371 -7.39242,-0.058 z"
           id="path221"
           transform="scale(0.26458333)" />
        <path
           style="fill:#000000;fill-opacity:1;stroke:none;stroke-width:0.01974912;stroke-miterlimit:4;stroke-dasharray:none;stroke-opacity:1"
           d="m 77.907397,148.05205 c -0.657381,-0.084 -2.738133,-0.70859 -3.692435,-1.10841 -0.505513,-0.21179 -0.885658,-0.42209 -0.949402,-0.52523 -0.08107,-0.13118 0.403863,-0.35853 1.615279,-0.75729 0.97241,-0.3201 1.482222,-0.54111 1.625939,-0.70487 0.273663,-0.31184 0.08777,-0.65805 -0.517832,-0.9644 -0.391303,-0.19795 -0.893787,-0.31953 -1.807581,-0.43739 -1.35618,-0.17492 -1.883939,-0.33384 -2.147051,-0.64653 -0.363839,-0.4324 0.01569,-0.76214 1.24402,-1.08083 0.728692,-0.18905 0.989823,-0.31098 1.032802,-0.48222 0.0464,-0.18486 -0.20823,-0.387 -0.820921,-0.6517 -0.620868,-0.26824 -0.977751,-0.50541 -1.061997,-0.70578 -0.143166,-0.34049 0.05092,-0.50244 1.105762,-0.92269 0.59744,-0.23802 0.695145,-0.29525 0.695145,-0.40716 0,-0.10517 -0.149092,-0.18278 -0.691221,-0.35982 -0.489887,-0.15998 -0.841163,-0.3273 -0.941184,-0.4483 -0.05365,-0.0649 -0.06988,-0.23137 -0.06656,-0.68272 0.0038,-0.51089 0.01992,-0.62712 0.112064,-0.80667 0.269782,-0.52565 1.251244,-0.80149 2.853904,-0.80207 1.173279,-5.3e-4 1.806128,0.14701 2.178746,0.50759 0.178975,0.17319 0.271037,0.43455 0.360222,1.02267 0.08271,0.54539 0.210823,0.83708 0.591087,1.34578 0.401339,0.53689 0.407266,0.5746 0.194609,1.23847 -0.08147,0.25432 -0.148119,0.51875 -0.148119,0.58763 0,0.18356 0.331724,0.60534 1.21689,1.54726 0.43174,0.45942 0.844587,0.91388 0.917443,1.00992 l 0.132464,0.17461 -0.240893,1.45469 c -0.359878,2.17322 -0.49268,2.66219 -0.843616,3.10615 -0.306131,0.38729 -0.517895,0.48307 -1.132914,0.51242 -0.285128,0.0136 -0.651721,0.008 -0.814652,-0.0131 z"
           id="path237" />
        <path
           style="fill:#000000;fill-opacity:1;stroke:#000000;stroke-width:0.07464234;stroke-miterlimit:4;stroke-dasharray:none;stroke-opacity:1"
           d="m 305.07276,594.12463 c -0.4974,-0.0835 -1.25001,-0.3805 -1.67247,-0.66007 -3.08749,-2.0432 -11.35708,-13.50359 -11.82513,-16.38781 -0.0998,-0.61497 -0.0383,-0.74901 0.63877,-1.39312 0.90905,-0.86476 2.57406,-1.55628 5.02383,-2.08653 1.46465,-0.31702 2.7199,-0.41702 6.22018,-0.49553 4.97397,-0.11156 6.64561,0.0589 8.20232,0.83664 1.63174,0.81517 1.78528,1.15011 1.7581,3.8352 -0.0127,1.24934 -0.21314,3.95099 -0.44554,6.00365 -0.26034,2.29945 -0.4306,4.96897 -0.44352,6.95413 l -0.021,3.22201 -0.65312,0.1825 c -0.76969,0.21508 -5.48061,0.2074 -6.78245,-0.0111 z"
           id="path245"
           transform="scale(0.26458333)" />
        <path
           style="fill:#000000;fill-opacity:1;stroke:none;stroke-width:0.02792947;stroke-miterlimit:4;stroke-dasharray:none;stroke-opacity:1"
           d="m 104.4992,147.81467 c -0.45236,-0.1642 -0.82926,-0.4222 -0.98938,-0.67725 -0.29477,-0.46955 -0.0563,-1.47319 0.53452,-2.24934 0.48814,-0.64131 0.60693,-0.91431 0.64386,-1.47975 0.0303,-0.4643 0.0163,-0.53143 -0.1856,-0.8892 -0.12012,-0.21283 -0.2184,-0.44703 -0.2184,-0.52043 0,-0.0734 0.10947,-0.36452 0.24327,-0.64693 0.45372,-0.95765 0.56533,-1.63848 0.52787,-3.21998 l -0.0161,-0.68162 0.41697,-0.86258 c 0.22934,-0.47442 0.4475,-0.88145 0.4848,-0.9045 0.0373,-0.023 0.29751,0.0546 0.57824,0.17254 0.3648,0.15327 3.83726,1.1071 4.03166,1.10743 0.01,2e-5 0.0175,0.0408 0.0175,0.0906 0,0.0498 -0.12568,0.2133 -0.27929,0.36329 -0.15361,0.15 -0.27929,0.3062 -0.27929,0.34712 0,0.0409 0.13006,0.23091 0.28903,0.42223 0.47012,0.56576 0.54168,0.8494 0.36549,1.44873 -0.0533,0.18135 -0.4638,0.36392 -1.21312,0.53955 -1.81359,0.42509 -2.14906,0.52999 -2.3889,0.74704 -0.17769,0.16081 -0.15452,0.33699 0.0673,0.51147 0.23556,0.18532 0.41986,0.26428 1.65831,0.71047 0.53764,0.19371 1.0362,0.39328 1.10792,0.4435 0.1194,0.0836 0.0958,0.10868 -0.2793,0.29754 -0.22532,0.11344 -0.7396,0.33505 -1.14283,0.49248 -1.35343,0.52841 -1.49234,0.78125 -1.29926,2.36489 0.1588,1.30258 0.15057,1.63544 -0.0448,1.81343 -0.31324,0.2853 -0.48575,0.32799 -1.41393,0.3499 -0.70046,0.0165 -0.97819,-0.004 -1.21639,-0.0906 z"
           id="path253" />
        <path
           style="fill:#000000;fill-opacity:1;stroke:none;stroke-width:0.02792947;stroke-miterlimit:4;stroke-dasharray:none;stroke-opacity:1"
           d="m 106.11849,134.8671 c -0.50662,-0.0776 -0.79274,-0.21839 -0.9948,-0.48949 -0.12603,-0.1691 -0.12817,-0.19804 -0.0288,-0.39024 0.14219,-0.27497 0.92228,-0.99232 1.20969,-1.11241 4.66604,-0.56507 0.98775,0.99249 0.93059,1.57871 0,0.23045 0.35329,0.30329 1.2764,0.26317 0.8674,-0.0377 1.21519,-0.11568 1.50197,-0.33676 0.3081,-0.23751 1.35753,-0.43612 5.52356,-1.04534 2.08014,-0.30419 2.89997,-0.45085 3.12248,-0.55856 0.29293,-0.1418 0.3079,-0.14242 0.51332,-0.0211 0.11638,0.0687 0.2116,0.1472 0.2116,0.17435 0,0.10571 -0.51106,0.20462 -1.92015,0.37164 -2.40431,0.28498 -3.52404,0.51534 -5.09714,1.04862 -0.57828,0.19604 -1.19912,0.34948 -1.71068,0.42279 -0.95573,0.13696 -3.86638,0.1979 -4.53806,0.095 z"
           id="path261" />
        <path
           style="fill:#000000;fill-opacity:1;stroke:none;stroke-width:0.02792947;stroke-miterlimit:4;stroke-dasharray:none;stroke-opacity:1"
           d="m 122.44262,132.60328 c -0.51413,-0.0479 -0.68694,-0.16853 -0.47475,-0.33152 0.24083,-0.18499 3.68045,-0.0456 5.76046,0.23345 l 0.38403,0.0515 -0.41894,0.0506 c -0.48601,0.0587 -4.61037,0.0555 -5.2508,-0.004 z"
           id="path265" />
        <ellipse
           style="fill:#000000;fill-opacity:1;stroke:none;stroke-width:0.10583334;stroke-miterlimit:4;stroke-dasharray:none;stroke-opacity:1"
           id="path1080"
           cx="146.05"
           cy="37.807552"
           rx="0.95911455"
           ry="0.9921875" />
        <path
           style="fill:#ffffff;fill-opacity:1;stroke:none;stroke-width:0.40000001;stroke-miterlimit:4;stroke-dasharray:none;stroke-opacity:1"
           d="m 358.41812,391.75115 c -2.08381,-2.30654 -5.13506,-7.16588 -6.78054,-10.79855 -1.64548,-3.63268 -4.2631,-8.05506 -5.81692,-9.82753 -2.5128,-2.86638 -4.91314,-8.68623 -4.92866,-11.95001 -0.003,-0.64497 -2.5138,-3.31551 -5.5794,-5.93454 -6.26943,-5.35613 -9.42618,-10.6454 -9.42618,-15.79392 0,-1.91446 -0.47616,-3.77511 -1.05813,-4.13479 -0.58197,-0.35968 -5.29528,0.14409 -10.47402,1.11949 -8.73079,1.6444 -9.54771,1.65414 -11.22766,0.13381 -1.26944,-1.14882 -5.24349,-1.9614 -13.27598,-2.71453 -6.30532,-0.59119 -14.38921,-1.48528 -17.96421,-1.98685 -3.575,-0.50158 -9.98897,-1.1989 -14.25327,-1.5496 -6.37318,-0.52414 -8.02126,-1.02024 -9.25879,-2.78707 -1.27298,-1.81743 -1.80499,-1.96241 -3.44431,-0.93864 -1.41659,0.88468 -3.36697,0.95169 -7.24121,0.2488 -2.91633,-0.5291 -10.97722,-1.16888 -17.91309,-1.42172 -15.26752,-0.55657 -17.76466,-1.10966 -18.9375,-4.19447 -0.7354,-1.93425 -1.61927,-2.37329 -4.77785,-2.37329 -2.13154,0 -5.33243,0.50788 -7.11308,1.12861 -3.12243,1.08849 -3.42218,0.94628 -8.43067,-4 -5.08953,-5.02631 -7.27795,-6.03366 -9.18023,-4.22573 -0.5225,0.49659 -6.35,2.32441 -12.95,4.06182 -12.06375,3.17572 -22.51238,7.23237 -22.48559,8.72998 0.008,0.44292 2.25792,2.04269 5,3.55503 5.4861,3.02575 6.73239,5.42041 2.23559,4.29552 -1.5125,-0.37836 -4.30111,-0.94039 -6.19691,-1.24897 -1.8958,-0.30858 -4.18259,-1.46957 -5.08175,-2.57999 -1.5813,-1.95282 -1.79325,-1.96495 -6.47267,-0.37052 -2.66081,0.90663 -4.99243,1.49382 -5.18138,1.30487 -0.18895,-0.18894 0.33737,-1.97318 1.16959,-3.96496 1.9161,-4.58587 1.92022,-6.68566 0.0131,-6.68566 -0.825,0 -1.49321,-0.7875 -1.48491,-1.75 0.0207,-2.39445 9.79968,-15.48251 11.00945,-14.73483 0.53458,0.33038 1.97287,-0.10037 3.19621,-0.95724 1.22335,-0.85686 3.2171,-1.55793 4.43056,-1.55793 2.38123,0 9.34869,-5.94372 9.34869,-7.97507 0,-0.6814 -0.5625,-1.00893 -1.25,-0.72785 -4.70799,1.92483 -4.75,1.92367 -4.75,-0.1319 0,-1.12684 2.24477,-4.61402 4.98838,-7.74929 5.45911,-6.23844 10.52598,-14.23486 9.60401,-15.15684 -0.32116,-0.32116 -1.73201,-0.0608 -3.13521,0.57851 -3.50686,1.59783 -4.45718,1.46252 -4.45718,-0.63461 0,-3.4963 7.63409,-9.12735 23.28482,-17.17532 16.23855,-8.35026 42.49024,-19.5859 43.47078,-18.60537 0.30373,0.30374 -7.05452,4.23436 -16.35167,8.73471 -18.42541,8.91893 -25.40393,13.1469 -25.40393,15.39107 0,0.79858 0.18665,1.45196 0.41478,1.45196 0.22813,0 5.51563,-1.97631 11.75,-4.3918 15.98459,-6.19318 15.83522,-6.15913 15.83522,-3.60985 0,2.84785 1.76315,6.00165 3.35526,6.00165 3.21434,0 23.78681,-15.14212 42.79669,-31.5 11.76458,-10.12335 15.16343,-12.3138 26.96034,-17.37511 18.45297,-7.917 43.45527,-14.94137 60.88771,-17.10635 31.43087,-3.90346 81.59082,-1.40627 101.92775,5.07443 15.60416,4.97253 24.19651,10.24988 43.44381,26.68278 13.3844,11.42731 15.13565,12.62733 17.24587,11.81756 2.14645,-0.82367 1.24167,-6.9308 -1.98908,-13.42595 -1.27687,-2.56705 -3.58153,-8.17032 -5.12145,-12.45172 -1.82456,-5.07276 -3.79385,-8.62075 -5.65338,-10.18544 -3.46447,-2.91516 -3.47773,-3.44302 -0.40521,-16.12508 1.34515,-5.55219 2.92226,-14.77719 3.5047,-20.5 0.90363,-8.87873 1.63662,-11.57868 4.99669,-18.40512 4.9614,-10.07976 5.65715,-10.91289 12.01855,-14.39164 2.87161,-1.57035 5.75226,-3.92464 6.40146,-5.23177 0.64919,-1.30712 2.26109,-2.5308 3.58199,-2.71929 1.32089,-0.18848 3.53984,-1.08848 4.93098,-2 4.05131,-2.65451 19.95534,-2.23858 27.4019,0.71663 5.09457,2.02181 18.52907,12.64576 17.40836,13.76646 -0.20255,0.20256 -1.90383,-0.40659 -3.78061,-1.35365 -2.01065,-1.01462 -5.67157,-1.71652 -8.91233,-1.70873 -6.79319,0.0163 -23.98005,4.20642 -24.67426,6.01551 -0.28052,0.73101 1.3056,3.48402 3.52469,6.1178 3.4883,4.14015 10.16619,17.84358 10.13064,20.78868 -0.007,0.55 -2.59259,2.38384 -5.74657,4.07519 -7.27239,3.89989 -7.62252,5.72767 -2.3701,12.37249 4.28289,5.41825 7.37977,12.65906 9.85944,23.05232 0.85294,3.575 2.91465,10.49426 4.58159,15.37614 2.72255,7.9734 3.01536,10.00746 2.87906,20 -0.20142,14.7679 -1.79222,20.92829 -7.43273,28.78344 -6.33636,8.82421 -14.25511,16.35282 -28.25176,26.85987 -19.84499,14.8973 -41.071,24.31378 -61.83149,27.43025 -10.96585,1.64615 -19.04467,4.7056 -22.77819,8.6261 -4.31741,4.53363 -11.47382,7.67609 -38.89032,17.07718 -7.975,2.73462 -15.5125,5.62928 -16.75,6.43258 -3.1585,2.05028 -2.89427,4.40483 0.5,4.45545 2.74795,0.041 2.74683,0.0439 -1.5,3.88587 l -4.25,3.84486 -0.002,12.86413 c -0.002,19.64064 -3.69131,24.87402 -11.46675,16.26754 z m 136.2573,-214.54238 c -0.25358,-5.70152 -0.74896,-10.65432 -1.10086,-11.00622 -0.35189,-0.35189 -1.37609,-0.0288 -2.27599,0.71811 -1.35023,1.12059 -1.56353,2.87766 -1.22045,10.05353 0.24443,5.11252 0.95537,9.34584 1.72533,10.27358 2.58746,3.1177 3.3401,0.48683 2.87197,-10.039 z"
           id="path1083"
           transform="scale(0.26458333)" />
      </g>
    </g>
    <path
       style="fill:#ffffff;fill-opacity:1;stroke:none;stroke-width:0.11984861;stroke-miterlimit:4;stroke-dasharray:none;stroke-opacity:1"
       d="m 78.867563,113.55278 c 0.42282,-1.09284 0.505901,-2.10253 0.189116,-2.29832 -0.654669,-0.4046 -0.320239,-1.67544 0.753732,-2.86419 0.595947,-0.65965 1.259641,-1.19936 1.474872,-1.19936 0.45865,0 3.134397,2.97365 3.134397,3.48336 0,0.41385 -0.684565,0.71135 -1.636861,0.71135 -0.431088,0 -0.979056,0.3803 -1.463921,1.01599 -0.884068,1.15907 -2.803057,2.06025 -2.451335,1.15117 z"
       id="path4519" />
    <path
       style="fill:#ffffff;fill-opacity:1;stroke:none;stroke-width:0.02118644;stroke-miterlimit:4;stroke-dasharray:none;stroke-opacity:1"
       d="m 18.485169,81.280457 c -0.06102,-0.03945 -0.06606,-0.07321 -0.02172,-0.145563 0.305027,-0.497687 4.273328,-3.197294 5.552373,-3.777242 0.565706,-0.256503 0.742315,-0.195594 0.619683,0.213717 -0.212817,0.710319 -1.428955,1.655209 -2.829487,2.198394 -0.962736,0.37339 -1.483943,0.629113 -1.946196,0.95487 -0.624909,0.440386 -1.196026,0.671309 -1.374657,0.555824 z"
       id="path4523" />
    <path
       style="fill:#ffffff;fill-opacity:1;stroke:none;stroke-width:0.02118644;stroke-miterlimit:4;stroke-dasharray:none;stroke-opacity:1"
       d="m 22.351736,84.895842 c 10e-5,-0.35117 0.721621,-1.541597 1.346953,-2.222314 0.398992,-0.43433 0.847346,-0.783831 0.935576,-0.729301 0.126674,0.07829 0.006,0.454428 -0.287086,0.894835 -0.500961,0.752774 -1.580417,1.984642 -1.876311,2.141233 -0.110161,0.0583 -0.11917,0.05191 -0.119132,-0.08445 z"
       id="path4525" />
    <path
       style="fill:#ffffff;fill-opacity:1;stroke:none;stroke-width:0.02118644;stroke-miterlimit:4;stroke-dasharray:none;stroke-opacity:1"
       d="m 147.66949,41.433924 c -0.7379,-0.252494 -1.26957,-0.697055 -1.54979,-1.295873 -0.32962,-0.70439 -0.2391,-1.711886 0.19989,-2.224749 0.28665,-0.334889 0.80654,-0.563097 1.65836,-0.727949 0.91462,-0.177006 1.31871,-0.33897 1.59586,-0.639646 0.18174,-0.19717 0.21432,-0.267427 0.21432,-0.462139 0,-0.253445 -0.13398,-0.422741 -0.46802,-0.591394 -0.22249,-0.112337 -0.80074,-0.236501 -1.14744,-0.246383 l -0.26483,-0.0075 0.23834,-0.04241 c 0.1311,-0.02334 0.48441,-0.04418 0.78516,-0.04634 0.64195,-0.0046 1.01539,0.100312 1.8528,0.520541 0.96163,0.482571 1.64144,0.993058 2.1468,1.612112 0.22123,0.270989 0.38824,0.377804 0.67479,0.431562 0.1826,0.03426 0.19822,0.05919 0.92034,1.469509 0.64239,1.254598 0.71856,1.429689 0.6069,1.395026 -0.0702,-0.0218 -0.33027,-0.08519 -0.57789,-0.140856 -0.24761,-0.05567 -0.51071,-0.122037 -0.58466,-0.147482 -0.14515,-0.04995 -1.76689,0.04973 -1.82962,0.112459 -0.0202,0.02019 -0.099,-0.0066 -0.17508,-0.05953 -0.0761,-0.05292 -0.31972,-0.182568 -0.54135,-0.288115 -0.50662,-0.241277 -0.69205,-0.462706 -0.72553,-0.866352 -0.0142,-0.17064 -0.0485,-0.28221 -0.0868,-0.28221 -0.15215,0 -0.51208,0.394499 -0.69123,0.757629 -0.16341,0.331219 -0.19491,0.459809 -0.24047,0.981697 -0.0288,0.330306 -0.0774,0.647255 -0.10798,0.704337 -0.0877,0.163893 -0.27654,0.204739 -0.93973,0.203274 -0.49867,-0.0011 -0.68578,-0.02426 -0.96318,-0.119174 z m 1.0959,-0.861084 c 1.02944,-0.512992 0.67136,-2.143373 -0.47075,-2.143373 -0.96247,0 -1.46298,1.213792 -0.79448,1.926701 0.33456,0.356782 0.81794,0.439563 1.26523,0.216672 z"
       id="path4529" />
    <path
       style="fill:none;stroke:#000000;stroke-width:0.26458332px;stroke-linecap:butt;stroke-linejoin:miter;stroke-opacity:1"
       d="M 169.80932,55.190678 Z"
       id="path4531" />
    <path
       style="fill:#808080;fill-opacity:1;stroke:none;stroke-width:0.02118644;stroke-miterlimit:4;stroke-dasharray:none;stroke-opacity:1"
       d="m 169.70631,56.246799 c -0.26919,-0.134673 -0.53866,-0.338127 -0.89942,-0.67909 -0.63245,-0.597736 -0.79772,-0.70212 -1.31665,-0.831591 -0.76678,-0.191309 -2.22208,-1.001516 -3.16026,-1.759407 -0.45367,-0.366488 -0.89515,-0.599692 -1.61812,-0.854737 -1.37977,-0.486749 -2.71283,-1.256858 -7.31863,-4.227981 -1.69834,-1.09557 -1.98687,-1.234979 -1.91174,-0.923689 0.0444,0.183885 0.36588,0.87036 0.48782,1.041604 0.18648,0.261889 0.15539,0.286972 -0.30579,0.246742 -0.57464,-0.05013 -0.63203,0.03431 -0.39958,0.587915 0.0144,0.03422 -0.17522,-0.04139 -0.42132,-0.168019 -0.2461,-0.126632 -0.55627,-0.24656 -0.68927,-0.266504 -0.22223,-0.03333 -0.26274,-0.06476 -0.50025,-0.388128 -0.3454,-0.470265 -0.72326,-0.882292 -1.0354,-1.129024 l -0.25645,-0.202711 h 0.32255 c 0.40399,0 0.5664,-0.124002 0.51017,-0.389522 -0.14353,-0.677706 -0.0971,-1.020839 0.17892,-1.32339 0.27619,-0.302694 0.33253,-0.42843 0.32043,-0.715053 -0.0262,-0.620686 -0.037,-0.586433 0.27891,-0.880504 0.31844,-0.296386 0.41034,-0.504034 0.41105,-0.92882 8e-4,-0.402452 -0.16584,-1.876552 -0.21935,-1.941787 -0.0291,-0.0355 -0.0304,-0.07385 -0.003,-0.09073 0.0991,-0.06125 1.68084,-0.139792 1.83814,-0.09128 0.14473,0.04464 0.13433,0.04941 -0.11668,0.05356 -0.50381,0.0083 -0.62554,0.135062 -0.78338,0.815652 -0.15305,0.659974 -0.35642,2.430624 -0.36385,3.168018 l -0.007,0.721706 0.23835,0.468387 c 0.24363,0.478758 0.33403,0.571592 0.90945,0.933844 0.12613,0.0794 0.39616,0.27691 0.60008,0.438901 0.74524,0.592003 2.22084,1.50889 2.42836,1.50889 0.0933,0 0.0987,-0.02439 0.0611,-0.278072 -0.0227,-0.15294 -0.0439,-0.373412 -0.0471,-0.489937 l -0.006,-0.211862 0.32746,0.01236 c 0.73304,0.02765 1.66155,0.555717 2.53128,1.439622 0.40332,0.409884 0.39433,0.43362 -0.1193,0.31506 -0.55604,-0.128349 -0.86561,0.07761 -0.68523,0.455882 0.19317,0.405067 1.05173,0.897165 2.82328,1.6182 1.59553,0.649391 2.36671,1.07683 3.08797,1.711547 0.77096,0.678453 1.22121,0.74321 1.52051,0.218684 0.0558,-0.09777 0.071,-0.09505 0.39725,0.07125 0.18658,0.0951 0.5895,0.37561 0.89538,0.623358 0.30588,0.247748 0.79449,0.643977 1.0858,0.880515 0.29132,0.236535 0.63902,0.498906 0.77267,0.583044 0.21191,0.13341 0.26534,0.207078 0.41759,0.575849 0.096,0.23258 0.16319,0.434269 0.14926,0.448202 -0.0139,0.01394 -0.19829,-0.06119 -0.40969,-0.16695 z"
       id="path4535" />
    <path
       style="fill:#808080;fill-opacity:1;stroke:none;stroke-width:0.02118644;stroke-miterlimit:4;stroke-dasharray:none;stroke-opacity:1"
       d="m 169.87557,56.304066 c -0.26381,-0.111655 -0.5975,-0.356146 -1.16446,-0.853197 -0.59439,-0.521089 -0.6468,-0.55217 -1.28045,-0.759238 -0.84127,-0.274915 -1.93141,-0.871847 -2.87599,-1.574829 -0.76243,-0.567417 -0.93867,-0.665596 -1.79192,-0.998215 -1.49593,-0.583147 -2.67408,-1.251548 -6.41288,-3.638229 -2.2798,-1.455315 -2.71087,-1.707896 -2.83411,-1.660605 -0.11562,0.04437 -0.0686,0.208992 0.23537,0.824061 0.13629,0.275783 0.25575,0.520089 0.26546,0.542904 0.01,0.02281 -0.14922,0.04148 -0.35319,0.04148 -0.20396,0 -0.40854,0.01447 -0.45462,0.03215 -0.0959,0.0368 -0.10845,0.213857 -0.0298,0.420658 0.0417,0.109792 0.0388,0.135639 -0.0132,0.114205 -0.0369,-0.01524 -0.23403,-0.100481 -0.43795,-0.189434 -0.20392,-0.08895 -0.46936,-0.186653 -0.58986,-0.217111 -0.18078,-0.0457 -0.26719,-0.117814 -0.4942,-0.412481 -0.30972,-0.402018 -0.76461,-0.888764 -1.05196,-1.125619 l -0.19214,-0.158385 h 0.29159 c 0.18303,0 0.33719,-0.03194 0.41405,-0.08577 0.11554,-0.08093 0.12028,-0.107121 0.0838,-0.463454 -0.0747,-0.729684 -0.0525,-0.823468 0.30168,-1.271781 0.20036,-0.253648 0.2042,-0.266904 0.2042,-0.704972 v -0.446463 l 0.25797,-0.274902 c 0.43176,-0.460094 0.45165,-0.527325 0.41009,-1.386237 -0.0198,-0.408363 -0.0681,-0.933156 -0.10733,-1.166206 -0.0393,-0.23305 -0.0628,-0.433181 -0.0523,-0.444733 0.0345,-0.03791 0.88676,-0.104817 1.29242,-0.101449 0.34764,0.0029 0.36808,0.008 0.16366,0.04108 -0.27877,0.04509 -0.3961,0.171484 -0.50755,0.546775 -0.18175,0.61201 -0.38152,2.171022 -0.43339,3.382171 l -0.0332,0.775539 0.19855,0.363233 c 0.29968,0.548254 0.41887,0.681167 0.91989,1.025792 0.25304,0.174046 0.71033,0.50056 1.01621,0.725588 0.72298,0.531879 1.89203,1.233673 2.05505,1.233673 h 0.1278 l -0.0377,-0.476695 -0.0377,-0.476694 h 0.20635 c 0.4786,0 1.30077,0.337606 1.83978,0.755459 0.26969,0.209072 1.03715,0.944968 1.03715,0.994495 0,0.02016 -0.1013,0.01707 -0.22511,-0.0069 -1.02976,-0.199208 -1.20987,0.353544 -0.31567,0.968766 0.33491,0.230426 1.32974,0.715135 2.26217,1.102191 1.58574,0.658246 2.29039,1.041032 3.01935,1.640189 0.59114,0.485886 0.8589,0.636881 1.12936,0.636881 0.19992,0 0.26105,-0.02765 0.40981,-0.185383 0.0962,-0.101959 0.20311,-0.18538 0.23767,-0.18538 0.13782,0 0.75931,0.431946 1.66568,1.15765 0.52436,0.419849 1.08884,0.859065 1.25439,0.976035 0.25474,0.179985 0.32635,0.269351 0.4659,0.581432 0.0907,0.202819 0.15783,0.388115 0.1492,0.411766 -0.009,0.02365 -0.0931,0.01024 -0.18777,-0.02983 z"
       id="path4537" />
    <path
       style="fill:#4d4d4d;fill-opacity:1;stroke:none;stroke-width:0.02118644;stroke-miterlimit:4;stroke-dasharray:none;stroke-opacity:1"
       d="m 169.72064,56.222299 c -0.17893,-0.09228 -0.5705,-0.38218 -0.87017,-0.644226 -0.70853,-0.619572 -0.82693,-0.69369 -1.41368,-0.884891 -0.8643,-0.281641 -1.95494,-0.882965 -2.97705,-1.641377 -0.61181,-0.453975 -0.9994,-0.662618 -1.81971,-0.979575 -1.36918,-0.529035 -2.41158,-1.121918 -6.15169,-3.498879 -2.8033,-1.781596 -2.95976,-1.86944 -3.02531,-1.698607 -0.0185,0.04826 0.0942,0.341855 0.26509,0.690661 0.16352,0.333695 0.2973,0.619334 0.2973,0.634754 0,0.01543 -0.17584,0.02804 -0.39076,0.02804 -0.48006,0 -0.55759,0.06132 -0.47391,0.374825 0.0305,0.11429 0.048,0.207801 0.0389,0.207801 -0.009,0 -0.20243,-0.08129 -0.42961,-0.180641 -0.22718,-0.09935 -0.51275,-0.2071 -0.63461,-0.239435 -0.18739,-0.04973 -0.27408,-0.126 -0.56218,-0.494676 -0.18735,-0.239736 -0.52271,-0.608684 -0.74524,-0.819888 l -0.4046,-0.384003 h 0.27969 c 0.17181,0 0.32682,-0.03302 0.40189,-0.0856 0.11338,-0.07942 0.11941,-0.10904 0.0835,-0.410488 -0.0852,-0.714785 -0.0523,-0.855173 0.32181,-1.376757 0.17333,-0.24163 0.18462,-0.28281 0.18462,-0.673314 v -0.415944 l 0.2883,-0.323098 c 0.15856,-0.177705 0.31681,-0.409517 0.35167,-0.515141 0.0729,-0.221025 0.0316,-1.240116 -0.08,-1.972969 -0.0377,-0.247616 -0.0582,-0.461883 -0.0456,-0.476149 0.0347,-0.03919 0.83673,-0.09845 1.28644,-0.09505 0.21849,0.0016 0.33766,0.01278 0.26483,0.02474 -0.42739,0.07015 -0.5675,0.266788 -0.71015,0.996681 -0.16382,0.838194 -0.34917,2.644161 -0.34917,3.402158 0,0.294142 0.0269,0.389913 0.19528,0.694107 0.29463,0.532435 0.40894,0.662268 0.85342,0.969315 0.22433,0.154964 0.67662,0.477829 1.0051,0.717481 0.9229,0.673325 1.95327,1.287912 2.15922,1.287912 0.0747,0 0.0806,-0.05855 0.0479,-0.476694 l -0.0373,-0.476695 h 0.20757 c 0.49765,0 1.20534,0.289661 1.81881,0.744453 0.35136,0.26048 1.09907,0.983419 1.05641,1.021427 -0.013,0.01156 -0.17013,-0.0038 -0.34925,-0.03418 -0.77756,-0.131744 -0.99544,0.234077 -0.45127,0.757706 0.30806,0.296436 1.14178,0.728755 2.65105,1.37469 1.70859,0.731231 2.0881,0.941824 2.98908,1.658633 0.56385,0.448596 0.78738,0.568373 1.06072,0.568373 0.16871,0 0.24045,-0.03477 0.38249,-0.185383 0.0962,-0.10196 0.20914,-0.185381 0.25105,-0.185381 0.13226,0 0.82481,0.487437 1.81362,1.276485 0.52569,0.419489 1.05302,0.829427 1.17185,0.910966 0.16155,0.11086 0.25889,0.241205 0.38589,0.516745 0.0934,0.202668 0.16157,0.393324 0.15145,0.423682 -0.0104,0.03133 -0.15905,-0.01736 -0.34372,-0.112588 z"
       id="path4539" />
    <path
       style="fill:#4d4d4d;fill-opacity:1;stroke:none;stroke-width:0.01059322;stroke-miterlimit:4;stroke-dasharray:none;stroke-opacity:1"
       d="m 65.071854,102.03248 c -0.116525,-0.0214 -0.378706,-0.0861 -0.582625,-0.14391 -0.516004,-0.14618 -0.795981,-0.18771 -1.37712,-0.20425 -0.434268,-0.0123 -0.559392,-0.006 -0.913664,0.0456 -0.806593,0.11767 -1.275972,0.0752 -1.719376,-0.15557 -0.124921,-0.065 -0.304591,-0.1579 -0.39927,-0.20642 -0.609319,-0.31226 -2.823789,-0.84703 -5.071504,-1.22472 -1.353256,-0.22739 -2.353876,-0.341825 -3.177966,-0.363446 -0.973328,-0.02553 -1.212749,-0.09644 -1.590024,-0.470895 -0.480528,-0.476935 -1.12863,-1.45813 -1.322644,-2.00242 -0.105754,-0.296682 -0.10005,-0.35483 0.07795,-0.794491 0.08551,-0.211203 0.162428,-0.392234 0.170942,-0.402288 0.01601,-0.01892 1.041972,0.06898 1.922256,0.164693 0.713124,0.07754 4.073406,0.582612 5.097987,0.766267 2.928527,0.524931 3.147859,0.568013 3.173539,0.62334 0.04649,0.100163 0.254603,0.31278 0.392504,0.400995 0.202348,0.129439 0.372425,0.18865 0.669462,0.233063 0.198078,0.02962 0.313058,0.06384 0.457586,0.136202 0.478595,0.239623 1.083488,0.731878 2.253565,1.83393 0.589399,0.55513 0.687441,0.63439 0.965338,0.78042 0.299138,0.15719 0.550497,0.22782 0.91662,0.25755 0.644898,0.0524 1.170085,0.25027 1.282493,0.48328 0.04676,0.0969 0.0086,0.15987 -0.132845,0.21927 -0.154871,0.065 -0.792985,0.0789 -1.0932,0.0238 z"
       id="path4543" />
  </g>
</svg>
