<?xml version="1.0" encoding="UTF-8" standalone="no"?>
<!DOCTYPE svg PUBLIC "-//W3C//DTD SVG 1.1//EN"
 "http://www.w3.org/Graphics/SVG/1.1/DTD/svg11.dtd">
<!-- Generated by graphviz version 12.2.1 (0)
 -->
<!-- Pages: 1 -->
<svg width="270pt" height="432pt"
 viewBox="0.00 0.00 270.12 432.00" xmlns="http://www.w3.org/2000/svg" xmlns:xlink="http://www.w3.org/1999/xlink">
<g id="graph0" class="graph" transform="scale(1 1) rotate(0) translate(4 428)">
<polygon fill="white" stroke="none" points="-4,4 -4,-428 266.12,-428 266.12,4 -4,4"/>
<!-- 6910522123518388832 -->
<g id="node1" class="node">
<title>6910522123518388832</title>
<polygon fill="none" stroke="black" points="114.88,-424 32.88,-424 32.88,-388 114.88,-388 114.88,-424"/>
<text text-anchor="start" x="40.88" y="-407.7" font-family="Deja Vu Sans Mono" font-weight="bold" font-size="14.00">Project</text>
<text text-anchor="start" x="40.88" y="-393.7" font-family="Deja Vu Sans Mono" font-style="italic" font-size="14.00">u</text>
<text text-anchor="start" x="49.12" y="-393.7" font-family="Deja Vu Sans Mono" font-size="14.00">: int32</text>
</g>
<!-- &#45;6927514096155232164 -->
<g id="node2" class="node">
<title>&#45;6927514096155232164</title>
<polygon fill="none" stroke="black" points="106.62,-280 41.12,-280 41.12,-244 106.62,-244 106.62,-280"/>
<text text-anchor="start" x="49.12" y="-263.7" font-family="Deja Vu Sans Mono" font-weight="bold" font-size="14.00">Filter</text>
<text text-anchor="start" x="49.12" y="-249.7" font-family="Deja Vu Sans Mono" font-size="14.00">:: …</text>
</g>
<!-- &#45;6927514096155232164&#45;&gt;6910522123518388832 -->
<g id="edge1" class="edge">
<title>&#45;6927514096155232164&#45;&gt;6910522123518388832</title>
<path fill="none" stroke="black" d="M67.64,-280.41C64.31,-290.63 60.56,-303.88 58.88,-316 56.68,-331.85 56.68,-336.15 58.88,-352 60.01,-360.15 62.07,-368.8 64.31,-376.7"/>
<polygon fill="black" stroke="black" points="60.93,-377.6 67.2,-386.15 67.62,-375.56 60.93,-377.6"/>
</g>
<!-- 5836282494259426543 -->
<g id="node3" class="node">
<title>5836282494259426543</title>
<polygon fill="none" stroke="black" points="149.88,-352 67.88,-352 67.88,-316 149.88,-316 149.88,-352"/>
<text text-anchor="start" x="75.88" y="-335.7" font-family="Deja Vu Sans Mono" font-style="italic" font-size="14.00">x</text>
<text text-anchor="start" x="84.12" y="-335.7" font-family="Deja Vu Sans Mono" font-size="14.00">: </text>
<text text-anchor="start" x="100.62" y="-335.7" font-family="Deja Vu Sans Mono" font-weight="bold" font-size="14.00">Field</text>
<text text-anchor="start" x="75.88" y="-321.7" font-family="Deja Vu Sans Mono" font-size="14.00">:: int32</text>
</g>
<!-- &#45;6927514096155232164&#45;&gt;5836282494259426543 -->
<g id="edge5" class="edge">
<title>&#45;6927514096155232164&#45;&gt;5836282494259426543</title>
<path fill="none" stroke="black" d="M82.53,-280.3C86.34,-287.93 90.92,-297.08 95.18,-305.6"/>
<polygon fill="black" stroke="black" points="92.04,-307.16 99.65,-314.54 98.3,-304.03 92.04,-307.16"/>
</g>
<!-- 5836282494259426543&#45;&gt;6910522123518388832 -->
<g id="edge2" class="edge">
<title>5836282494259426543&#45;&gt;6910522123518388832</title>
<path fill="none" stroke="black" d="M100.22,-352.3C96.41,-359.93 91.83,-369.08 87.57,-377.6"/>
<polygon fill="black" stroke="black" points="84.45,-376.03 83.1,-386.54 90.71,-379.16 84.45,-376.03"/>
</g>
<!-- 2570484774880809454 -->
<g id="node4" class="node">
<title>2570484774880809454</title>
<polygon fill="none" stroke="black" points="139.75,-64 0,-64 0,0 139.75,0 139.75,-64"/>
<text text-anchor="start" x="8" y="-47.7" font-family="Deja Vu Sans Mono" font-style="italic" font-size="14.00">t</text>
<text text-anchor="start" x="16.25" y="-47.7" font-family="Deja Vu Sans Mono" font-size="14.00">: </text>
<text text-anchor="start" x="32.75" y="-47.7" font-family="Deja Vu Sans Mono" font-weight="bold" font-size="14.00">UnboundTable</text>
<text text-anchor="start" x="8" y="-33.7" font-family="Deja Vu Sans Mono" font-style="italic" font-size="14.00">x</text>
<text text-anchor="start" x="16.25" y="-33.7" font-family="Deja Vu Sans Mono" font-size="14.00">: int32</text>
<text text-anchor="start" x="8" y="-19.7" font-family="Deja Vu Sans Mono" font-style="italic" font-size="14.00">y</text>
<text text-anchor="start" x="16.25" y="-19.7" font-family="Deja Vu Sans Mono" font-size="14.00">: float64</text>
<text text-anchor="start" x="8" y="-5.7" font-family="Deja Vu Sans Mono" font-style="italic" font-size="14.00">z</text>
<text text-anchor="start" x="16.25" y="-5.7" font-family="Deja Vu Sans Mono" font-size="14.00">: string</text>
</g>
<!-- 2570484774880809454&#45;&gt;&#45;6927514096155232164 -->
<g id="edge3" class="edge">
<title>2570484774880809454&#45;&gt;&#45;6927514096155232164</title>
<path fill="none" stroke="black" d="M61.33,-64.46C58.71,-75.59 56.17,-88.27 54.88,-100 49.6,-147.71 46.65,-160.71 54.88,-208 56.33,-216.38 58.99,-225.18 61.87,-233.16"/>
<polygon fill="black" stroke="black" points="58.55,-234.28 65.43,-242.33 65.08,-231.75 58.55,-234.28"/>
</g>
<!-- &#45;1114774748471445059 -->
<g id="node6" class="node">
<title>&#45;1114774748471445059</title>
<polygon fill="none" stroke="black" points="145.88,-136 63.88,-136 63.88,-100 145.88,-100 145.88,-136"/>
<text text-anchor="start" x="71.88" y="-119.7" font-family="Deja Vu Sans Mono" font-style="italic" font-size="14.00">x</text>
<text text-anchor="start" x="80.12" y="-119.7" font-family="Deja Vu Sans Mono" font-size="14.00">: </text>
<text text-anchor="start" x="96.62" y="-119.7" font-family="Deja Vu Sans Mono" font-weight="bold" font-size="14.00">Field</text>
<text text-anchor="start" x="71.88" y="-105.7" font-family="Deja Vu Sans Mono" font-size="14.00">:: int32</text>
</g>
<!-- 2570484774880809454&#45;&gt;&#45;1114774748471445059 -->
<g id="edge8" class="edge">
<title>2570484774880809454&#45;&gt;&#45;1114774748471445059</title>
<path fill="none" stroke="black" d="M82.91,-64.28C86.29,-72.39 89.91,-81.08 93.22,-89.02"/>
<polygon fill="black" stroke="black" points="89.96,-90.31 97.04,-98.2 96.43,-87.62 89.96,-90.31"/>
</g>
<!-- &#45;1724008482954812593 -->
<g id="node5" class="node">
<title>&#45;1724008482954812593</title>
<polygon fill="none" stroke="black" points="162.12,-208 63.62,-208 63.62,-172 162.12,-172 162.12,-208"/>
<text text-anchor="start" x="71.62" y="-191.7" font-family="Deja Vu Sans Mono" font-weight="bold" font-size="14.00">Greater</text>
<text text-anchor="start" x="71.62" y="-177.7" font-family="Deja Vu Sans Mono" font-size="14.00">:: boolean</text>
</g>
<!-- &#45;1724008482954812593&#45;&gt;&#45;6927514096155232164 -->
<g id="edge4" class="edge">
<title>&#45;1724008482954812593&#45;&gt;&#45;6927514096155232164</title>
<path fill="none" stroke="black" d="M103.23,-208.3C98.94,-216.02 93.77,-225.29 88.98,-233.89"/>
<polygon fill="black" stroke="black" points="85.95,-232.13 84.14,-242.57 92.07,-235.54 85.95,-232.13"/>
</g>
<!-- &#45;1114774748471445059&#45;&gt;&#45;1724008482954812593 -->
<g id="edge6" class="edge">
<title>&#45;1114774748471445059&#45;&gt;&#45;1724008482954812593</title>
<path fill="none" stroke="black" d="M106.85,-136.3C107.69,-143.59 108.68,-152.27 109.61,-160.46"/>
<polygon fill="black" stroke="black" points="106.14,-160.85 110.75,-170.39 113.09,-160.06 106.14,-160.85"/>
</g>
<!-- &#45;6129985503149971143 -->
<g id="node7" class="node">
<title>&#45;6129985503149971143</title>
<polygon fill="none" stroke="black" points="262.12,-136 163.62,-136 163.62,-100 262.12,-100 262.12,-136"/>
<text text-anchor="start" x="171.62" y="-119.7" font-family="Deja Vu Sans Mono" font-style="italic" font-size="14.00">0</text>
<text text-anchor="start" x="179.88" y="-119.7" font-family="Deja Vu Sans Mono" font-size="14.00">: </text>
<text text-anchor="start" x="196.38" y="-119.7" font-family="Deja Vu Sans Mono" font-weight="bold" font-size="14.00">Literal</text>
<text text-anchor="start" x="171.62" y="-105.7" font-family="Deja Vu Sans Mono" font-size="14.00">:: int8</text>
</g>
<!-- &#45;6129985503149971143&#45;&gt;&#45;1724008482954812593 -->
<g id="edge7" class="edge">
<title>&#45;6129985503149971143&#45;&gt;&#45;1724008482954812593</title>
<path fill="none" stroke="black" d="M187.9,-136.48C175.52,-145.15 160.37,-155.75 146.95,-165.15"/>
<polygon fill="black" stroke="black" points="144.96,-162.27 138.77,-170.87 148.97,-168 144.96,-162.27"/>
</g>
</g>
</svg>
