<?xml version="1.0" encoding="UTF-8" standalone="no"?>
<!DOCTYPE svg PUBLIC "-//W3C//DTD SVG 1.1//EN"
 "http://www.w3.org/Graphics/SVG/1.1/DTD/svg11.dtd">
<!-- Generated by graphviz version 12.1.0 (0)
 -->
<!-- Pages: 1 -->
<svg width="338pt" height="372pt"
 viewBox="0.00 0.00 337.62 372.00" xmlns="http://www.w3.org/2000/svg" xmlns:xlink="http://www.w3.org/1999/xlink">
<g id="graph0" class="graph" transform="scale(1 1) rotate(0) translate(4 368)">
<polygon fill="white" stroke="none" points="-4,4 -4,-368 333.62,-368 333.62,4 -4,4"/>
<!-- &#45;2745740272320814573 -->
<g id="node1" class="node">
<title>&#45;2745740272320814573</title>
<polygon fill="none" stroke="black" points="197.5,-364 16.5,-364 16.5,-314 197.5,-314 197.5,-364"/>
<text text-anchor="start" x="24.5" y="-347.7" font-family="Deja Vu Sans Mono" font-weight="bold" font-size="14.00">Aggregate</text>
<text text-anchor="start" x="24.5" y="-333.7" font-family="Deja Vu Sans Mono" font-style="italic" font-size="14.00">species</text>
<text text-anchor="start" x="82.25" y="-333.7" font-family="Deja Vu Sans Mono" font-size="14.00">: string</text>
<text text-anchor="start" x="24.5" y="-319.7" font-family="Deja Vu Sans Mono" font-style="italic" font-size="14.00">avg_bill_mm</text>
<text text-anchor="start" x="115.25" y="-319.7" font-family="Deja Vu Sans Mono" font-size="14.00">: float64</text>
</g>
<!-- 3932485681394058068 -->
<g id="node2" class="node">
<title>3932485681394058068</title>
<polygon fill="none" stroke="black" points="214,-134 0,-134 0,0 214,0 214,-134"/>
<text text-anchor="start" x="8" y="-117.7" font-family="Deja Vu Sans Mono" font-style="italic" font-size="14.00">penguins</text>
<text text-anchor="start" x="74" y="-117.7" font-family="Deja Vu Sans Mono" font-size="14.00">: </text>
<text text-anchor="start" x="90.5" y="-117.7" font-family="Deja Vu Sans Mono" font-weight="bold" font-size="14.00">DatabaseTable</text>
<text text-anchor="start" x="8" y="-103.7" font-family="Deja Vu Sans Mono" font-style="italic" font-size="14.00">species</text>
<text text-anchor="start" x="65.75" y="-103.7" font-family="Deja Vu Sans Mono" font-size="14.00">: string</text>
<text text-anchor="start" x="8" y="-89.7" font-family="Deja Vu Sans Mono" font-style="italic" font-size="14.00">island</text>
<text text-anchor="start" x="57.5" y="-89.7" font-family="Deja Vu Sans Mono" font-size="14.00">: string</text>
<text text-anchor="start" x="8" y="-75.7" font-family="Deja Vu Sans Mono" font-style="italic" font-size="14.00">bill_length_mm</text>
<text text-anchor="start" x="123.5" y="-75.7" font-family="Deja Vu Sans Mono" font-size="14.00">: float64</text>
<text text-anchor="start" x="8" y="-61.7" font-family="Deja Vu Sans Mono" font-style="italic" font-size="14.00">bill_depth_mm</text>
<text text-anchor="start" x="115.25" y="-61.7" font-family="Deja Vu Sans Mono" font-size="14.00">: float64</text>
<text text-anchor="start" x="8" y="-47.7" font-family="Deja Vu Sans Mono" font-style="italic" font-size="14.00">flipper_length_mm</text>
<text text-anchor="start" x="148.25" y="-47.7" font-family="Deja Vu Sans Mono" font-size="14.00">: int64</text>
<text text-anchor="start" x="8" y="-33.7" font-family="Deja Vu Sans Mono" font-style="italic" font-size="14.00">body_mass_g</text>
<text text-anchor="start" x="98.75" y="-33.7" font-family="Deja Vu Sans Mono" font-size="14.00">: int64</text>
<text text-anchor="start" x="8" y="-19.7" font-family="Deja Vu Sans Mono" font-style="italic" font-size="14.00">sex</text>
<text text-anchor="start" x="32.75" y="-19.7" font-family="Deja Vu Sans Mono" font-size="14.00">: string</text>
<text text-anchor="start" x="61.63" y="-5.7" font-family="Deja Vu Sans Mono" font-style="italic" font-size="14.00">year</text>
<text text-anchor="start" x="94.63" y="-5.7" font-family="Deja Vu Sans Mono" font-size="14.00">: int64</text>
</g>
<!-- 3932485681394058068&#45;&gt;&#45;2745740272320814573 -->
<g id="edge1" class="edge">
<title>3932485681394058068&#45;&gt;&#45;2745740272320814573</title>
<path fill="none" stroke="black" d="M70.76,-134.49C55.56,-166.08 39.64,-204.95 32,-242 28.77,-257.67 25.07,-263.58 32,-278 37.25,-288.93 45.58,-298.49 54.8,-306.58"/>
<polygon fill="black" stroke="black" points="52.31,-309.07 62.29,-312.64 56.72,-303.63 52.31,-309.07"/>
</g>
<!-- 1145058088528739675 -->
<g id="node3" class="node">
<title>1145058088528739675</title>
<polygon fill="none" stroke="black" points="172.75,-278 41.25,-278 41.25,-242 172.75,-242 172.75,-278"/>
<text text-anchor="start" x="49.25" y="-261.7" font-family="Deja Vu Sans Mono" font-style="italic" font-size="14.00">species</text>
<text text-anchor="start" x="107" y="-261.7" font-family="Deja Vu Sans Mono" font-size="14.00">: </text>
<text text-anchor="start" x="123.5" y="-261.7" font-family="Deja Vu Sans Mono" font-weight="bold" font-size="14.00">Field</text>
<text text-anchor="start" x="69.88" y="-247.7" font-family="Deja Vu Sans Mono" font-size="14.00">:: string</text>
</g>
<!-- 3932485681394058068&#45;&gt;1145058088528739675 -->
<g id="edge4" class="edge">
<title>3932485681394058068&#45;&gt;1145058088528739675</title>
<path fill="none" stroke="black" d="M107,-134.27C107,-167.04 107,-204.91 107,-230.24"/>
<polygon fill="black" stroke="black" points="103.5,-230.08 107,-240.08 110.5,-230.08 103.5,-230.08"/>
</g>
<!-- &#45;3147976465851350643 -->
<g id="node5" class="node">
<title>&#45;3147976465851350643</title>
<polygon fill="none" stroke="black" points="329.62,-206 140.38,-206 140.38,-170 329.62,-170 329.62,-206"/>
<text text-anchor="start" x="148.38" y="-189.7" font-family="Deja Vu Sans Mono" font-style="italic" font-size="14.00">bill_length_mm</text>
<text text-anchor="start" x="263.88" y="-189.7" font-family="Deja Vu Sans Mono" font-size="14.00">: </text>
<text text-anchor="start" x="280.38" y="-189.7" font-family="Deja Vu Sans Mono" font-weight="bold" font-size="14.00">Field</text>
<text text-anchor="start" x="193.75" y="-175.7" font-family="Deja Vu Sans Mono" font-size="14.00">:: float64</text>
</g>
<!-- 3932485681394058068&#45;&gt;&#45;3147976465851350643 -->
<g id="edge6" class="edge">
<title>3932485681394058068&#45;&gt;&#45;3147976465851350643</title>
<path fill="none" stroke="black" d="M178.48,-134.46C188.96,-144.2 199.17,-153.69 207.96,-161.87"/>
<polygon fill="black" stroke="black" points="205.43,-164.28 215.13,-168.53 210.19,-159.16 205.43,-164.28"/>
</g>
<!-- 1145058088528739675&#45;&gt;&#45;2745740272320814573 -->
<g id="edge2" class="edge">
<title>1145058088528739675&#45;&gt;&#45;2745740272320814573</title>
<path fill="none" stroke="black" d="M107,-278.47C107,-285.53 107,-293.95 107,-302.2"/>
<polygon fill="black" stroke="black" points="103.5,-302.08 107,-312.08 110.5,-302.08 103.5,-302.08"/>
</g>
<!-- 4254956238124939376 -->
<g id="node4" class="node">
<title>4254956238124939376</title>
<polygon fill="none" stroke="black" points="289.25,-278 190.75,-278 190.75,-242 289.25,-242 289.25,-278"/>
<text text-anchor="start" x="198.75" y="-261.7" font-family="Deja Vu Sans Mono" font-weight="bold" font-size="14.00">Mean</text>
<text text-anchor="start" x="198.75" y="-247.7" font-family="Deja Vu Sans Mono" font-size="14.00">:: float64</text>
</g>
<!-- 4254956238124939376&#45;&gt;&#45;2745740272320814573 -->
<g id="edge3" class="edge">
<title>4254956238124939376&#45;&gt;&#45;2745740272320814573</title>
<path fill="none" stroke="black" d="M209.82,-278.47C194.83,-287.15 176.28,-297.89 159.09,-307.84"/>
<polygon fill="black" stroke="black" points="157.37,-304.79 150.47,-312.83 160.88,-310.85 157.37,-304.79"/>
</g>
<!-- &#45;3147976465851350643&#45;&gt;4254956238124939376 -->
<g id="edge5" class="edge">
<title>&#45;3147976465851350643&#45;&gt;4254956238124939376</title>
<path fill="none" stroke="black" d="M236.24,-206.3C236.76,-213.59 237.38,-222.27 237.96,-230.46"/>
<polygon fill="black" stroke="black" points="234.47,-230.66 238.67,-240.39 241.45,-230.16 234.47,-230.66"/>
</g>
</g>
</svg>
