<svg xmlns="http://www.w3.org/2000/svg" width="120" height="16"><g fill="none" fill-rule="evenodd"><path fill="#848AB8" fill-rule="nonzero" d="M4.202 10.434c-.497.378-1.18.564-2.057.564-.873 0-1.588-.13-2.145-.39V9.46c.352.159.728.283 1.122.375.398.092.768.137 1.109.137.5 0 .869-.09 1.107-.274a.883.883 0 00.356-.735.901.901 0 00-.328-.706c-.219-.193-.67-.421-1.353-.685-.705-.274-1.201-.586-1.49-.94-.29-.35-.435-.774-.435-1.267 0-.62.229-1.106.688-1.462.457-.356 1.073-.534 1.844-.534.74 0 1.476.155 2.21.467l-.401.988c-.687-.276-1.3-.415-1.84-.415-.408 0-.72.085-.93.255a.83.83 0 00-.318.678c0 .193.044.36.128.495.085.137.225.267.419.388.193.123.54.283 1.046.482.568.226.984.439 1.248.635.263.196.457.417.58.665.124.245.185.538.185.873 0 .661-.248 1.179-.745 1.554zm2.53-.201c-.512-.509-.768-1.21-.768-2.102 0-.917.236-1.638.712-2.162.477-.525 1.13-.787 1.962-.787.772 0 1.382.225 1.83.675.447.45.67 1.068.67 1.857v.644H7.242c.017.545.17.964.46 1.257.288.293.696.438 1.22.438a4.6 4.6 0 00.965-.094c.298-.062.618-.166.96-.312v.97c-.305.138-.61.237-.921.293a5.77 5.77 0 01-1.063.087c-.908.001-1.62-.254-2.132-.764zm.956-3.787c-.238.24-.38.59-.426 1.049h2.653c-.007-.463-.123-.813-.348-1.052-.227-.239-.537-.359-.932-.359-.393 0-.709.12-.947.362zm8.269 3.669h-.043c-.282.342-.565.574-.85.697-.286.125-.653.186-1.1.186-.575 0-1.024-.148-1.345-.446-.322-.297-.483-.718-.483-1.264 0-.578.224-1.015.67-1.309.448-.294 1.131-.455 2.047-.482l1.01-.03v-.301c0-.36-.09-.627-.262-.803-.175-.18-.445-.268-.812-.268-.3 0-.587.042-.861.126-.276.085-.54.184-.794.3l-.401-.853c.317-.16.664-.28 1.041-.363a4.968 4.968 0 011.068-.124c.743 0 1.304.156 1.683.466.379.312.568.8.568 1.468v3.78h-.888l-.248-.78zm-.515-.393c.272-.242.409-.581.409-1.018v-.488l-.751.03c-.585.022-1.01.114-1.277.282-.266.168-.398.425-.398.77 0 .25.076.443.232.58.155.137.388.206.699.206.451 0 .813-.12 1.086-.362zm6.97-4.49l-.122 1.112c-.177-.04-.36-.06-.551-.06-.495 0-.899.154-1.207.466-.307.312-.462.715-.462 1.213v2.933h-1.24V5.284h.97l.165.989h.063c.194-.335.447-.601.758-.797.313-.196.65-.294 1.008-.294.249 0 .455.017.619.05zm1.423 5.023c-.459-.496-.69-1.207-.69-2.134 0-.945.242-1.67.722-2.177.483-.507 1.176-.761 2.087-.761.616 0 1.17.11 1.663.33l-.374.958c-.526-.195-.959-.293-1.301-.293-1.01 0-1.516.643-1.516 1.933 0 .63.125 1.103.377 1.419.253.316.622.475 1.108.475a3.27 3.27 0 001.57-.397v1.041c-.22.125-.458.215-.709.269a4.28 4.28 0 01-.918.082c-.887-.003-1.559-.25-2.02-.745zm8.916.641v-3.45c0-.435-.09-.756-.271-.97-.183-.213-.47-.321-.865-.321-.521 0-.905.151-1.151.45-.243.3-.366.8-.366 1.503v2.788h-1.242V3h1.242v2.003c0 .321-.02.666-.063 1.03h.079c.169-.27.403-.48.705-.628a2.362 2.362 0 011.055-.223c1.417 0 2.126.685 2.126 2.055v3.66h-1.249z"/><path fill="#848AB8" d="M42.828 6.115c.418.537.628 1.29.628 2.26 0 .974-.213 1.732-.637 2.275-.425.542-1.012.813-1.768.813-.76 0-1.352-.27-1.773-.81h-.087l-.233.703H38V3h1.278v1.987c0 .147-.007.365-.022.655-.014.29-.025.475-.032.553h.054c.405-.59 1.005-.886 1.795-.886.75 0 1.336.27 1.755.806zm-3.201.674c-.225.3-.343.8-.35 1.5v.087c0 .721.117 1.245.349 1.57.233.323.61.485 1.136.485.454 0 .797-.177 1.031-.532.233-.354.352-.866.352-1.535 0-1.35-.466-2.025-1.403-2.025-.518 0-.887.15-1.115.45zm5.792-1.372l1.223 3.366c.186.48.31.93.37 1.354h.044c.034-.196.094-.435.18-.716.088-.28.548-1.615 1.382-4.003H50l-2.573 6.73C46.96 13.381 46.18 14 45.087 14a3.66 3.66 0 01-.826-.092v-.998c.192.043.411.065.658.065.618 0 1.05-.353 1.3-1.058l.223-.56-2.415-5.94h1.392z"/><path fill="#5468FF" fill-rule="nonzero" d="M70.306 0a1.87 1.87 0 011.865 1.872V12.35a1.87 1.87 0 01-1.865 1.872h-10.44A1.87 1.87 0 0158 12.35V1.867C58 .837 58.834 0 59.866 0h10.44zM65.25 3.593a4.012 4.012 0 00-4.003 4.02 4.008 4.008 0 004.003 4.017 4.012 4.012 0 004.003-4.02 4.006 4.006 0 00-4.003-4.017zm0 6.85a2.827 2.827 0 01-2.82-2.83 2.827 2.827 0 012.82-2.829 2.827 2.827 0 012.82 2.83c0 1.561-1.26 2.83-2.82 2.83zm0-2.972c0 .06.064.103.12.074l1.867-.97c.042-.021.055-.074.033-.116a2.32 2.32 0 00-1.933-1.179c-.043 0-.086.035-.086.083l-.001 2.108zm-2.614-3.658l-.246-.245a.61.61 0 00-.868 0l-.292.293a.615.615 0 000 .87l.24.243c.04.04.095.03.13-.008a4.484 4.484 0 011.023-1.028c.043-.026.047-.087.013-.125zm3.925-1.126a.616.616 0 00-.615-.617h-1.432a.617.617 0 00-.614.617v.5c0 .056.052.096.107.082a4.5 4.5 0 012.451-.012.084.084 0 00.104-.081l-.001-.489zm28.457 9.023c0 1.294-.33 2.238-.995 2.838-.664.6-1.68.9-3.047.9-.5 0-1.538-.097-2.368-.28l.305-1.502c.695.146 1.612.185 2.092.185.762 0 1.306-.155 1.63-.465.326-.311.485-.77.485-1.38v-.31a5.712 5.712 0 01-.742.28c-.305.092-.66.141-1.057.141-.523 0-1-.082-1.432-.247a2.99 2.99 0 01-1.11-.726 3.3 3.3 0 01-.718-1.202c-.17-.48-.257-1.336-.257-1.966 0-.59.092-1.33.271-1.824a3.51 3.51 0 01.801-1.274 3.67 3.67 0 011.275-.824 4.688 4.688 0 011.723-.324c.616 0 1.183.078 1.736.169.554.093 1.024.19 1.408.296v7.516zm-5.274-3.738c0 .794.174 1.675.524 2.044.35.367.8.551 1.354.551.3 0 .587-.044.854-.124.265-.084.48-.18.65-.297V5.444a7.53 7.53 0 00-1.252-.16c-.689-.018-1.213.262-1.582.71-.363.452-.549 1.242-.549 1.978h.001zm14.278 0c0 .64-.092 1.123-.281 1.651a3.897 3.897 0 01-.8 1.351 3.534 3.534 0 01-1.242.867c-.485.203-1.233.32-1.605.32-.374-.006-1.116-.113-1.596-.32a3.626 3.626 0 01-1.238-.868 3.993 3.993 0 01-.806-1.35 4.477 4.477 0 01-.29-1.652c0-.64.086-1.254.281-1.778.195-.523.465-.969.815-1.342a3.646 3.646 0 011.242-.86 3.993 3.993 0 011.582-.301c.573 0 1.102.101 1.587.3.485.203.903.49 1.242.862.345.374.61.818.806 1.343.204.521.304 1.137.304 1.776h-.001zm-1.94.004c0-.818-.18-1.5-.53-1.973-.349-.48-.838-.719-1.465-.719-.625 0-1.116.238-1.465.718-.349.478-.519 1.155-.519 1.973 0 .83.175 1.387.523 1.867.35.483.841.72 1.467.72.625 0 1.116-.242 1.465-.72.349-.486.522-1.038.522-1.867l.002.001zm6.165 4.187c-3.11.013-3.11-2.51-3.11-2.912L105.134.3l1.896-.3v8.89c0 .23 0 1.672 1.218 1.677v1.596zm3.343 0h-1.906V3.984l1.907-.3v8.479zm-.956-9.372c.637 0 1.155-.514 1.155-1.148 0-.634-.513-1.147-1.155-1.147-.64 0-1.154.513-1.154 1.147s.52 1.148 1.155 1.148h-.001zm5.696.9c.626 0 1.155.078 1.582.232.428.156.77.373 1.024.649.253.277.432.655.539 1.052.111.396.165.833.165 1.312v4.871c-.29.064-.732.137-1.324.224-.591.087-1.256.13-1.993.13-.49 0-.942-.049-1.344-.141a2.833 2.833 0 01-1.043-.45 2.174 2.174 0 01-.675-.804c-.16-.329-.243-.794-.243-1.28 0-.464.092-.759.27-1.079.187-.32.433-.58.745-.784a3.163 3.163 0 011.085-.435 6.131 6.131 0 012.688.038v-.311c0-.217-.024-.425-.078-.619a1.335 1.335 0 00-.27-.517 1.263 1.263 0 00-.515-.349 2.25 2.25 0 00-.81-.146 7.05 7.05 0 00-1.2.116 5.662 5.662 0 00-.892.219l-.229-1.556a7.85 7.85 0 011.048-.245 8.239 8.239 0 011.47-.126zm.16 6.872c.583 0 1.014-.033 1.315-.092V8.544a3.627 3.627 0 00-.456-.093 4.605 4.605 0 00-.66-.048 4.07 4.07 0 00-.635.049 1.962 1.962 0 00-.577.168c-.169.084-.31.2-.412.35-.106.15-.155.237-.155.465 0 .447.155.702.436.873.287.174.665.257 1.146.257l-.002-.002zM79.029 3.74c.626 0 1.155.078 1.582.232.426.155.77.374 1.023.65.257.28.432.653.539 1.05.112.397.165.833.165 1.313v4.871c-.293.062-.733.136-1.324.222-.594.09-1.258.132-1.996.132-.49 0-.94-.048-1.344-.14a2.833 2.833 0 01-1.043-.45 2.183 2.183 0 01-.673-.806c-.161-.329-.244-.794-.244-1.278 0-.465.092-.76.272-1.08a2.3 2.3 0 01.742-.784 3.165 3.165 0 011.087-.436 6.222 6.222 0 011.95-.091 5.9 5.9 0 01.737.131v-.31c0-.218-.023-.427-.077-.62a1.324 1.324 0 00-.272-.518 1.28 1.28 0 00-.515-.349 2.25 2.25 0 00-.81-.145c-.436 0-.834.054-1.198.116a5.345 5.345 0 00-.892.218l-.228-1.555a7.667 7.667 0 011.048-.246 7.821 7.821 0 011.469-.127h.002zm.164 6.877c.583 0 1.015-.033 1.316-.092V8.597a3.683 3.683 0 00-.457-.093 4.615 4.615 0 00-.66-.048c-.21 0-.423.015-.638.049a1.92 1.92 0 00-.576.169c-.17.083-.31.199-.412.35-.107.15-.155.236-.155.464 0 .447.154.702.435.873.281.169.665.258 1.145.258l.002-.002zm7.69 1.547c-3.109.013-3.109-2.51-3.109-2.912L83.767.3l1.896-.3v8.89c0 .23 0 1.672 1.218 1.677v1.594l.002.003z"/></g></svg>