<?xml version="1.0" encoding="UTF-8" standalone="no"?>
<svg
   xmlns:dc="http://purl.org/dc/elements/1.1/"
   xmlns:cc="http://creativecommons.org/ns#"
   xmlns:rdf="http://www.w3.org/1999/02/22-rdf-syntax-ns#"
   xmlns:svg="http://www.w3.org/2000/svg"
   xmlns="http://www.w3.org/2000/svg"
   version="1.1"
   id="svg10"
   width="1000"
   height="1000"
   viewBox="0 0 1000 999.99999">
  <metadata
     id="metadata16">
    <rdf:RDF>
      <cc:Work
         rdf:about="">
        <dc:format>image/svg+xml</dc:format>
        <dc:type
           rdf:resource="http://purl.org/dc/dcmitype/StillImage" />
        <dc:title></dc:title>
      </cc:Work>
    </rdf:RDF>
  </metadata>
  <defs
     id="defs14">
    <filter
       x="-0.3"
       y="-0.5"
       height="2"
       width="1.6"
       id="filter4581"
       style="color-interpolation-filters:sRGB;">
      <feTurbulence
         id="feTurbulence4575"
         baseFrequency="0.002 0.107"
         numOctaves="1" />
      <feColorMatrix
         id="feColorMatrix4577"
         result="result91"
         values="2 0 0 0 0 0 0 0 0 0 0 0 0 0 0 0 0 0 0.5 0.5" />
      <feDisplacementMap
         result="fbSourceGraphic"
         id="feDisplacementMap4579"
         in2="result91"
         in="SourceGraphic"
         scale="14.3"
         xChannelSelector="R"
         yChannelSelector="A" />
      <feColorMatrix
         id="feColorMatrix4583"
         values="0 0 0 -1 0 0 0 0 -1 0 0 0 0 -1 0 0 0 0 1 0"
         in="fbSourceGraphic"
         result="fbSourceGraphicAlpha" />
      <feTurbulence
         in="fbSourceGraphic"
         result="result1"
         numOctaves="5"
         seed="0"
         type="fractalNoise"
         baseFrequency="0.4"
         id="feTurbulence4585" />
      <feDisplacementMap
         result="fbSourceGraphic"
         in="fbSourceGraphic"
         scale="30"
         yChannelSelector="G"
         xChannelSelector="R"
         id="feDisplacementMap4587"
         in2="result1" />
      <feColorMatrix
         id="feColorMatrix4589"
         values="0 0 0 -1 0 0 0 0 -1 0 0 0 0 -1 0 0 0 0 1 0"
         in="fbSourceGraphic"
         result="fbSourceGraphicAlpha" />
      <feTurbulence
         in="fbSourceGraphic"
         baseFrequency="0.002 0.107"
         numOctaves="1"
         id="feTurbulence4591" />
      <feColorMatrix
         result="result91"
         values="2 0 0 0 0 0 0 0 0 0 0 0 0 0 0 0 0 0 0.5 0.5"
         id="feColorMatrix4593" />
      <feDisplacementMap
         result="fbSourceGraphic"
         in="fbSourceGraphic"
         scale="14.3"
         xChannelSelector="R"
         yChannelSelector="A"
         id="feDisplacementMap4595"
         in2="result91" />
      <feColorMatrix
         id="feColorMatrix4597"
         values="0 0 0 -1 0 0 0 0 -1 0 0 0 0 -1 0 0 0 0 1 0"
         in="fbSourceGraphic"
         result="fbSourceGraphicAlpha" />
      <feTurbulence
         in="fbSourceGraphic"
         baseFrequency="0.002 0.107"
         numOctaves="1"
         id="feTurbulence4599" />
      <feColorMatrix
         result="result91"
         values="2 0 0 0 0 0 0 0 0 0 0 0 0 0 0 0 0 0 0.5 0.5"
         id="feColorMatrix4601" />
      <feDisplacementMap
         result="fbSourceGraphic"
         in="fbSourceGraphic"
         scale="14.3"
         xChannelSelector="R"
         yChannelSelector="A"
         id="feDisplacementMap4603"
         in2="result91" />
      <feColorMatrix
         id="feColorMatrix4605"
         values="0 0 0 -1 0 0 0 0 -1 0 0 0 0 -1 0 0 0 0 1 0"
         in="fbSourceGraphic"
         result="fbSourceGraphicAlpha" />
      <feTurbulence
         in="fbSourceGraphic"
         baseFrequency="0.002 0.107"
         numOctaves="1"
         id="feTurbulence4607" />
      <feColorMatrix
         result="result91"
         values="2 0 0 0 0 0 0 0 0 0 0 0 0 0 0 0 0 0 0.5 0.5"
         id="feColorMatrix4609" />
      <feDisplacementMap
         in="fbSourceGraphic"
         scale="14.3"
         xChannelSelector="R"
         yChannelSelector="A"
         id="feDisplacementMap4611"
         in2="result91" />
    </filter>
  </defs>
  <path
     id="path3713"
     d="m 867.09634,417.81843 c 0,0 -1.45485,-34.74447 -16.28827,-58.47796 -14.83343,-23.73349 -10.54723,-19.19722 -29.06776,-41.98997 -11.43887,-14.07751 -23.91174,-23.8975 -41.28399,-38.38506 -17.37223,-14.48755 -39.40952,-34.74887 -41.12716,-42.11486 -2.96669,-12.7225 -12.52147,-20.36026 -28.0123,-30.12321 -24.70341,-15.5691 -51.69482,0.61967 -59.33371,11.46733 -9.09975,12.92221 -16.77985,26.59942 -16.08858,40.07875 0.75167,14.6571 4.43858,27.97149 14.95498,44.32524 10.51639,16.35373 26.9171,25.11308 26.37891,37.23013 -0.51311,11.55226 -10.55461,13.77797 -22.42135,10.81129 -11.86675,-2.96669 -23.73349,-23.73349 -47.46698,-29.66686 -23.73347,-5.93337 -40.07873,-5.93337 -75.67896,-2.96669 -35.60023,2.96669 -71.20046,11.86674 -97.90063,29.66686 -26.70017,17.80011 -37.71115,39.82208 -58.47796,51.68883 -20.76679,11.86674 -104.03369,70.54438 -109.96706,79.44444 -5.93338,8.90005 9.70634,4.26401 7.84459,7.31686 -7.54819,12.37745 -31.37838,28.93944 -31.37838,28.93944 0,0 -3.47059,5.64345 5.33428,9.09974 8.80486,3.45629 29.41018,-7.38823 44.24362,-13.32159 14.83343,-5.93338 23.73348,-8.90006 44.50028,-8.90006 36.32424,-0.0341 75.49817,10.02102 105.08916,10.28355 18.04544,0.0868 27.02821,-10.93961 28.4117,-4.35018 2.51337,11.97096 -6.25667,34.6977 -14.63374,46.93923 -9.97471,14.57618 -16.2419,29.66327 -14.10599,36.071 2.96668,8.90006 -0.92713,14.8904 -3.89382,26.75714 -2.96668,11.86674 -0.12832,23.5338 -0.12832,23.5338 0,0 -1.92627,5.71617 11.33901,5.477 7.11717,-0.12834 4.24601,-4.81419 3.95078,-11.13932 -1.3115,-28.09868 6.71052,-28.69933 9.75583,-43.11679 2.14775,-10.16821 2.65475,-20.75614 6.00472,-30.59398 3.26918,-9.60058 13.57827,-27.22791 13.57827,-27.22791 0,0 11.7154,-17.0375 20.7668,-20.7668 5.85086,-2.41064 11.31772,-12.81616 18.98391,0.0714 5.93338,11.86674 19.65437,17.72876 22.62105,38.23888 1.34301,9.28486 3.20769,26.24507 8.90006,37.91086 7.25885,14.87602 11.45758,7.04748 31.12172,38.69524 4.47851,10.73991 5.79065,11.79538 5.79065,11.79538 0,0 12.30809,4.91208 18.32784,-6.33277 -11.2409,-28.48311 -21.22429,-27.27991 -24.06152,-42.38936 -1.83514,-9.77284 -17.87148,-24.66061 -17.87148,-24.66061 0,0 -14.13816,-26.73647 -10.2122,-43.17376 4.22017,-17.66907 -3.29551,-22.40435 0.85577,-33.4893 4.7889,-12.78751 16.0886,-8.244 36.85539,-23.07744 20.7668,-14.83343 21.33116,-17.26916 37.11206,-25.6447 6.65544,-3.5323 9.77347,3.87483 20.1677,-1.71152 18.8994,-10.15746 23.67652,-28.81109 36.19932,-34.74447 16.95601,-8.03386 24.38956,-16.08859 32.63355,-30.72232 8.8573,-15.72239 6.12341,-36.17554 2.11092,-53.60004 -2.3599,-10.24804 -11.56056,-17.06555 -14.90407,-27.80634 -4.48045,-14.39308 -16.32557,-19.62194 -12.65185,-23.48309 14.83342,0 3.9888,-1.83256 24.18983,3.82246 19.05528,5.33427 27.15655,12.57977 46.8679,26.75713 18.34201,13.19249 42.73178,29.60989 57.5652,53.34338 14.83343,23.73348 15.22295,20.14962 26.70017,41.1342 4.74947,12.02396 10.9206,36.5155 17.80011,23.07744 z"
     style="fill:#e10c11;fill-opacity:1;fill-rule:evenodd;stroke:none;stroke-width:1.24600804px;stroke-linecap:butt;stroke-linejoin:miter;stroke-opacity:1" />
  <path
     id="path4541"
     d="m 717.09429,758.74892 c -2.77241,1.85947 -14.54806,4.59881 -17.35562,6.37706 -2.81943,1.78576 12.12735,4.51039 9.27417,6.2182 -2.86232,1.71329 -37.08674,3.96356 -39.98132,5.6024 -2.90181,1.64293 6.02577,2.74007 3.09328,4.31221 -2.93777,1.57497 -20.9506,4.80884 -23.91743,6.31681 -2.97076,1.50998 4.61211,2.93883 1.61396,4.38571 -3.00056,1.44804 13.49805,0.37653 10.4718,1.76545 -3.02788,1.38967 -35.55643,4.04967 -38.60826,5.38424 -3.05138,1.33438 12.82521,3.88975 9.75164,5.17314 -3.07286,1.28309 15.94939,-0.60474 12.8561,0.63147 -3.09201,1.2357 -48.86542,5.38692 -51.97609,6.57985 -3.10897,1.19229 25.11314,-0.63171 21.98728,0.52194 -3.12371,1.15285 3.50626,1.59153 0.36742,2.70986 -3.13654,1.11752 -17.1827,4.2746 -20.33261,5.3617 -3.14748,1.08626 -45.34048,2.58613 -48.49957,3.64608 -3.15675,1.05917 24.4297,0.45258 21.26309,1.48951 -3.16464,1.03629 8.59478,4.99135 5.42203,6.00945 -3.17048,1.01738 3.97676,0.59642 0.79991,1.59967 -3.17536,1.00277 -16.77682,-0.30279 -19.95682,0.68988 -3.17899,0.99235 -1.49084,2.48973 -4.67275,3.476 -3.1811,0.98603 -13.82241,3.21892 -17.00471,4.20288 -3.1818,0.9838 -37.03216,2.55603 -40.21343,3.54177 -3.18171,0.98588 -11.21804,-0.29367 -14.39751,0.69815 -3.18005,0.99201 9.73799,5.52938 6.5619,6.53135 -3.17718,1.00232 19.71352,-1.2416 16.54204,-0.2253 -3.17252,1.01663 -45.59854,4.11415 -48.76363,5.14879 -3.16694,1.03524 41.47143,1.76259 38.31365,2.81989 -3.15911,1.05774 -27.83923,0.0852 -30.98744,1.16904 -3.15024,1.08455 9.36163,2.27365 6.22404,3.38837 -3.13933,1.11534 -44.16305,2.63148 -47.28798,3.78108 -3.12689,1.15031 -26.28339,-0.76268 -29.39413,0.42598 -3.11211,1.18918 2.0468,8.39301 -1.04741,9.62463 -3.09503,1.23196 0.8117,0.30812 -2.26367,1.58659 -3.07565,1.2786 0.90347,3.66721 -2.15078,4.9964 -3.05424,1.32919 -16.04288,0.42162 -19.07398,1.80547 -3.55276,0.59317 29.41935,1.40286 26.42049,1.55687 -3.6913,0.18957 -25.66524,0.43974 -28.56168,0.0423 -3.77532,-0.51803 -20.73119,-0.75865 -23.25192,-2.10473 -3.26466,-1.74334 0.43403,-5.81418 -0.93502,-8.57778 -1.41449,-2.85532 -18.96949,-5.07063 -18.61615,-8.56356 0.3085,-3.04967 39.92094,-1.07941 41.39155,-4.28753 1.30415,-2.84501 -13.55768,-8.32783 -11.46791,-11.07087 1.93449,-2.53923 28.07671,-4.75873 30.5849,-7.03484 2.39559,-2.17393 -13.5986,-5.69887 -10.76498,-7.48211 2.75838,-1.73589 8.78791,-3.15986 11.88342,-4.38788 3.03259,-1.20306 4.46848,-2.42457 7.75158,-3.01119 3.19143,-0.57023 12.40816,0.029 15.76892,0.16026 2.80061,-0.019 -7.40273,-1.72519 -4.34355,-2.47545 2.8094,-0.689 21.18084,-3.15221 24.00735,-4.29176 2.76754,-1.11577 9.6712,1.19981 12.27261,-0.19696 2.72555,-1.46344 -3.43804,-5.92101 -1.09786,-7.52505 2.71795,-1.86297 -14.55347,-3.79512 -12.65816,-5.59736 3.0501,-2.90032 5.95085,-5.54201 5.77092,-7.37582 -0.18871,-1.92322 35.57155,-1.86452 30.30199,-1.35105 -2.33329,0.22735 -16.49539,2.20738 -20.04613,3.09545 -2.53328,0.6336 -24.66125,0.5984 -27.87344,1.61728 -3.13764,0.89173 -0.5813,2.53221 -3.75796,3.35608 -3.15929,0.81938 -26.30622,-1.36625 -29.49938,-0.61911 -3.18004,0.74408 24.22382,1.33026 21.01484,1.99764 -3.19913,0.66533 3.45862,4.64583 0.23534,5.22993 -3.21654,0.58288 2.50681,-1.29665 -0.72919,-0.79964 -3.23284,0.49653 -16.02761,1.23936 -19.27529,1.64523 -3.24689,0.40577 -52.33739,2.76981 -55.59455,3.08001 -3.25833,0.31032 51.46209,-0.40059 48.19804,-0.19086 -3.26716,0.20992 -43.0451,-1.68735 -46.31341,-1.58318 -3.27236,0.10431 19.74007,3.61456 16.47115,3.60787 -3.27489,-0.007 -14.35118,-0.32946 -17.61799,-0.45258 -3.27266,-0.12334 -25.71715,-1.42824 -28.97706,-1.67345 -3.26523,-0.24561 -23.42773,-1.69193 -26.6755,-2.06487 -3.2527,-0.37351 33.1816,-1.90488 29.95109,-2.41119 -3.23374,-0.50683 5.39613,0.0296 2.18934,-0.61538 -3.20747,-0.64514 -31.02643,0.0486 -34.20224,-0.7399 -3.17386,-0.78801 12.63257,-1.04118 9.49504,-1.97745 -3.13198,-0.93462 -40.6399,-2.72767 -43.73099,-3.81512 -3.08055,-1.08374 27.30313,-3.54422 24.26783,-4.78478 -2.2494,-1.83131 -19.8108,-1.48616 -22.69541,-3.82665 -2.41188,-1.95692 -39.98491,-5.63584 -42.69304,-7.89298 -2.4575,-2.04824 34.7987,-4.64063 32.20298,-6.8962 -2.45752,-2.13548 -6.43386,-2.85937 -8.9275,-5.14759 -2.43005,-2.22987 -19.03334,-6.06032 -21.41765,-8.40505 -2.37757,-2.33811 -13.12761,-3.24652 -15.38124,-5.66924 -2.29487,-2.46707 33.80334,-7.34551 31.71896,-9.86941 -2.1701,-2.6277 -16.85131,-2.61467 -18.70173,-5.26946 -1.97356,-2.83145 79.59834,-6.17457 78.09816,-8.99544 -1.64128,-3.08618 -95.19445,-1.69118 -107.48717,-9.85232 -4.44737,-2.95261 10.72827,-8.67564 10.75557,-11.86552 0.0286,-3.3461 -11.65062,-6.10833 -10.22892,-9.20012 1.29206,-2.80987 15.67624,-2.77437 18.30199,-5.30515 2.16706,-2.08867 22.54666,-3.77696 25.73053,-5.63466 3.07927,1.24918 6.86243,2.44861 9.96676,3.44837 3.15299,1.01543 -33.40054,1.43056 -30.22429,2.21372 3.20742,0.79085 51.10084,0.87579 54.3293,1.45562 3.24432,0.58269 -29.069,0.46421 -25.80617,0.8601 3.26705,0.3964 43.82013,2.21338 47.10299,2.44893 3.27913,0.23528 -3.76805,-1.82322 -0.47589,-1.72204 3.28468,0.10095 -3.79389,-1.17768 -0.49896,-1.18401 3.28573,-0.006 -24.03913,3.56877 -20.7459,3.48178 3.28538,-0.0868 36.24716,-1.25144 39.53732,-1.3927 3.28514,-0.14105 23.51283,-0.3368 26.80008,-0.50648 3.2858,-0.16961 -25.79324,-2.38583 -22.50801,-2.55841 3.28762,-0.17271 32.48038,1.05705 35.76476,0.90704 3.29032,-0.15028 9.70699,1.34937 12.99139,1.24767 3.29354,-0.10198 -17.35053,-2.90707 -14.06564,-2.93419 3.29554,-0.0272 4.97973,0.95233 8.26383,1.02672 3.29383,0.0746 -3.31501,0.69609 -0.0354,0.8994 3.28598,0.2037 50.02971,1.62074 53.2986,1.98029 3.28112,0.38537 -34.91085,-0.96778 -31.96432,-1.09452 3.26831,-0.14058 37.7769,0.0853 40.6819,-0.61155 3.11998,-0.74845 -11.79278,-1.33407 -9.03104,-2.63142 2.84143,-1.33479 20.80468,1.55319 21.52142,-4.07057 0.83793,-6.57467 -26.49532,-7.08761 -24.21947,-9.26004 2.22906,-2.12777 27.30193,-3.32129 29.36434,-5.7057 2.0193,-2.33458 -16.58021,-5.7343 -14.66049,-8.2231 1.89391,-2.45533 45.88466,-5.17066 42.81657,-5.77442 -6.05946,-1.19243 -30.85209,-3.38478 -19.53145,-7.44627 2.95163,-1.05895 13.51106,-5.52476 15.47011,-7.91869 1.994,-2.43663 9.88468,-5.654 12.0181,-7.88027 2.17927,-2.27413 2.01828,-2.91129 4.40774,-4.8672 2.42105,-1.98176 -19.16405,-5.71492 -16.45964,-7.2669 2.67036,-1.53244 39.37071,-2.95667 42.38324,-3.96954 2.85635,-0.96037 -31.8372,0.53332 -28.61589,0.12753 -2.76739,1.12273 2.62661,1.5293 -0.0385,3.68443 -2.3728,1.91875 30.20284,2.81356 28.01309,5.33759 -2.04792,2.36055 -52.54506,8.29819 -54.35156,11.01829 -1.76528,2.65802 20.59107,5.8042 19.13051,8.65057 -1.48717,2.89821 -9.20326,3.26098 -10.29781,6.1942 -1.16824,3.13073 0.63439,5.67496 0.005,8.65514 -0.71681,3.39185 15.33766,6.77068 15.44865,9.69522 0.13663,3.59991 -1.34608,6.1522 0.27937,8.5541 1.71331,2.53173 17.39372,7.31544 21.05648,7.89919 2.6227,0.41799 -5.02758,-0.64914 -1.27203,-1.50847 2.72178,-0.62279 -35.95092,-3.56096 -32.58372,-4.95994 2.67797,-1.11262 35.45167,-2.95576 38.56194,-4.60957 2.99291,-1.2912 10.61169,1.17596 13.57789,-0.21427 2.9519,-1.38353 -28.37289,-3.30421 -25.44133,-4.76486 2.91846,-1.45411 3.03257,-3.51647 5.9369,-5.02631 2.89504,-1.50501 42.0536,-2.59238 44.94057,-4.13228 2.88055,-1.53648 -22.92602,-4.85746 -20.04756,-6.40835 2.876,-1.54956 43.2262,-0.69974 46.10602,-2.24341 2.88118,-1.5444 1.45331,-5.37243 4.34422,-6.89065 2.89601,-1.5209 15.58406,-1.52906 18.49578,-3.00331 2.91992,-1.4784 -27.69376,-4.83381 -24.75205,-6.24476 2.95126,-1.41552 32.56203,-2.12489 35.54128,-3.45179 2.99024,-1.3318 -32.15668,-3.56178 -29.13213,-4.78334 3.03423,-1.22546 22.74596,-1.24384 25.82089,-2.33718 3.08082,-1.09545 -2.49826,-3.47196 0.62963,-4.41347 3.12685,-0.94119 -6.6086,-0.37398 -3.4285,-1.14003 3.16925,-0.76345 22.90576,-0.88098 26.13405,-1.44935 3.20318,-0.56395 9.98556,-2.62903 13.25289,-2.98026 -2.40584,2.09876 6.11398,5.01885 3.39487,6.90458 -2.61883,1.81619 -20.45183,3.87199 -23.32051,5.52582 -2.76379,1.59336 -5.46124,3.25035 -8.42049,4.72452 -2.86172,1.42559 -18.13387,3.89625 -21.14549,5.23882 -2.92851,1.30551 17.5117,1.26302 14.4716,2.51612 -2.97273,1.22533 -2.72573,3.61815 -5.77705,4.81767 -3.00048,1.17955 -24.7759,0.81086 -27.82571,1.9885 -3.01566,1.16446 31.79145,1.61354 28.75326,2.79837 -3.01907,1.17737 -36.23067,1.54368 -39.24684,2.76293 -3.01103,1.21716 -21.03622,5.75181 -24.01939,7.0323 -2.99038,1.28359 40.94874,1.52171 38.01146,2.89063 -2.95427,1.37685 -48.27899,0.35864 -51.15405,1.84386 -2.89889,1.49753 -6.18491,6.17869 -8.97717,7.80897 -2.81878,1.64577 13.50462,1.45667 10.82134,3.26093 -2.70628,1.81973 -32.32008,4.65693 -34.86098,6.66171 -2.55507,2.01595 20.53191,5.1693 18.17212,7.39662 -2.35863,2.22624 -19.82233,2.66892 -21.95778,5.13062 1.06283,2.77696 4.76039,4.92507 6.69623,7.56362 1.75735,2.39527 -80.90255,5.12117 -2.89454,10.13075 3.00688,0.19309 45.05892,0.63168 47.48878,2.71187 2.32318,1.98884 3.14745,6.52995 5.62327,8.48172 2.43503,1.91961 15.86091,2.82623 18.32323,4.72531 2.48932,1.9199 4.48489,3.15239 6.87943,5.06693 2.49347,1.99365 -42.27953,6.31223 -40.02535,8.31745 2.43032,2.1619 31.79591,4.15248 33.77989,6.34926 2.22383,2.46237 3.69824,1.93643 5.12875,4.47226 1.61724,2.86681 -21.39996,7.17749 -21.13132,10.18081 0.26377,2.94896 30.11267,5.29189 28.73692,8.41568 -1.10613,2.5116 -39.74242,6.06481 -42.10449,8.71441 -1.8483,2.07329 49.23275,3.16018 46.52008,5.33012 -2.21902,1.77505 -59.94811,3.21574 -62.79646,5.06195 -2.32968,1.30163 49.87405,4.29818 46.68901,5.80174 -2.64092,1.24669 -31.83479,3.9708 -34.84528,5.30395 -2.77351,1.22822 -9.46608,1.8823 -12.39176,3.1452 -2.85685,1.23318 -10.21602,0.76572 -13.072,1.997 -2.928,1.26234 14.05745,2.54421 11.28385,3.76777 -3.01537,1.3302 -0.64013,4.33787 -3.28133,5.57631 -3.19762,1.49935 -49.62747,3.32869 -51.95314,4.61602 -4.85645,2.68819 1.13774,3.49987 2.46935,4.6918 0.93835,0.83991 42.12743,2.20701 47.50406,1.97672 2.53631,-0.10863 9.21925,0.1837 12.92807,-0.20738 2.75282,-0.29027 -43.09057,-3.69095 -39.63491,-4.15046 3.24682,-0.66141 19.79783,1.06901 23.03243,0.36406 3.23775,-0.70564 27.15866,-3.69427 30.38452,-4.44197 3.2276,-0.74811 -5.26089,0.15009 -2.04485,-0.63857 3.21759,-0.78903 1.70657,-1.59328 4.91295,-2.42134 3.20741,-0.82833 9.7767,-0.68838 12.97324,-1.55419 3.1976,-0.8661 -19.29405,-2.23073 -16.10699,-3.13277 3.18729,-0.9021 29.01161,-1.01661 32.18871,-1.9531 3.17687,-0.93641 17.9028,-1.77727 21.06983,-2.74649 3.16709,-0.96923 7.10886,-4.69821 10.26646,-5.69868 3.15715,-1.00034 18.27162,0.22331 21.41964,-0.80668 3.14778,-1.02992 7.21126,-4.52626 10.35026,-5.58426 3.13865,-1.05789 -38.39987,-2.25206 -35.26964,-3.33647 3.12921,-1.08406 50.43909,0.31677 53.56023,-0.79223 3.12091,-1.10891 -35.40349,-3.79201 -32.29031,-4.92429 3.11238,-1.132 4.46354,-0.36029 7.56855,-1.51408 3.1047,-1.15367 7.65751,-4.23797 10.7552,-5.41187 3.09729,-1.17375 30.66509,-2.9675 33.75572,-4.15991 3.09019,-1.19224 30.83253,-2.52015 33.91641,-3.72949 3.0836,-1.20922 -44.21155,-0.0493 -41.13392,-1.27409 3.07751,-1.22471 49.85825,-4.12985 52.93015,-5.36852 3.07223,-1.23881 -13.63971,-3.90733 -10.57275,-5.15855 3.06685,-1.25117 2.50077,0.2566 5.56271,-1.00542 3.06254,-1.26227 7.36879,-5.36432 10.42677,-6.63589 3.05923,-1.27208 -14.85869,-0.27067 -11.80368,-1.55049 3.05538,-1.27998 5.96944,-2.64574 9.02094,-3.93189 3.053,-1.28677 59.34069,-2.70471 62.39016,-3.99609 l -30.68147,0.29903"
     style="fill:#e10c11;fill-opacity:1;fill-rule:evenodd;stroke:none;stroke-width:0.95507145px;stroke-linecap:butt;stroke-linejoin:miter;stroke-opacity:1" />
</svg>
