<?xml version="1.0" encoding="UTF-8" standalone="no"?>
<!DOCTYPE svg PUBLIC "-//W3C//DTD SVG 1.1//EN"
 "http://www.w3.org/Graphics/SVG/1.1/DTD/svg11.dtd">
<!-- Generated by graphviz version 10.0.1 (20240210.2158)
 -->
<!-- Pages: 1 -->
<svg width="508pt" height="878pt"
 viewBox="0.00 0.00 507.81 878.46" xmlns="http://www.w3.org/2000/svg" xmlns:xlink="http://www.w3.org/1999/xlink">
<g id="graph0" class="graph" transform="scale(1 1) rotate(0) translate(4 874.46)">
<polygon fill="white" stroke="none" points="-4,4 -4,-874.46 503.81,-874.46 503.81,4 -4,4"/>
<!-- &#45;3071186171462862504 -->
<g id="node1" class="node">
<title>&#45;3071186171462862504</title>
<polygon fill="none" stroke="green" points="270.96,-818.2 229.22,-870.46 145.73,-870.46 103.99,-818.2 145.73,-765.95 229.22,-765.95 270.96,-818.2"/>
<text text-anchor="start" x="144.35" y="-833.9" font-family="Roboto Mono" font-weight="bold" font-size="14.00">Sort</text>
<text text-anchor="start" x="144.35" y="-819.9" font-family="Roboto Mono" font-style="italic" font-size="14.00">species</text>
<text text-anchor="start" x="190.1" y="-819.9" font-family="Roboto Mono" font-size="14.00">: string</text>
<text text-anchor="start" x="144.35" y="-805.9" font-family="Roboto Mono" font-style="italic" font-size="14.00">island</text>
<text text-anchor="start" x="179.6" y="-805.9" font-family="Roboto Mono" font-size="14.00">: string</text>
<text text-anchor="start" x="152.6" y="-791.9" font-family="Roboto Mono" font-style="italic" font-size="14.00">count</text>
<text text-anchor="start" x="185.6" y="-791.9" font-family="Roboto Mono" font-size="14.00">: int64</text>
</g>
<!-- &#45;5484008958369800757 -->
<g id="node2" class="node">
<title>&#45;5484008958369800757</title>
<polygon fill="none" stroke="green" points="270.96,-436.36 229.22,-488.62 145.73,-488.62 103.99,-436.36 145.73,-384.11 229.22,-384.11 270.96,-436.36"/>
<text text-anchor="start" x="144.35" y="-452.06" font-family="Roboto Mono" font-weight="bold" font-size="14.00">Aggregate</text>
<text text-anchor="start" x="144.35" y="-438.06" font-family="Roboto Mono" font-style="italic" font-size="14.00">species</text>
<text text-anchor="start" x="190.1" y="-438.06" font-family="Roboto Mono" font-size="14.00">: string</text>
<text text-anchor="start" x="144.35" y="-424.06" font-family="Roboto Mono" font-style="italic" font-size="14.00">island</text>
<text text-anchor="start" x="179.6" y="-424.06" font-family="Roboto Mono" font-size="14.00">: string</text>
<text text-anchor="start" x="152.6" y="-410.06" font-family="Roboto Mono" font-style="italic" font-size="14.00">count</text>
<text text-anchor="start" x="185.6" y="-410.06" font-family="Roboto Mono" font-size="14.00">: int64</text>
</g>
<!-- &#45;5484008958369800757&#45;&gt;&#45;3071186171462862504 -->
<g id="edge1" class="edge">
<title>&#45;5484008958369800757&#45;&gt;&#45;3071186171462862504</title>
<path fill="none" stroke="black" d="M187.47,-488.99C187.47,-557.92 187.47,-679.93 187.47,-754.2"/>
<polygon fill="black" stroke="black" points="183.97,-754.18 187.47,-764.18 190.97,-754.18 183.97,-754.18"/>
</g>
<!-- &#45;7502551159562270300 -->
<g id="node8" class="node">
<title>&#45;7502551159562270300</title>
<polygon fill="none" stroke="green" points="343.32,-571.26 307.4,-600.66 235.55,-600.66 199.62,-571.26 235.55,-541.87 307.4,-541.87 343.32,-571.26"/>
<text text-anchor="start" x="235.47" y="-572.96" font-family="Roboto Mono" font-style="italic" font-size="14.00">count</text>
<text text-anchor="start" x="268.47" y="-572.96" font-family="Roboto Mono" font-size="14.00">: </text>
<text text-anchor="start" x="275.97" y="-572.96" font-family="Roboto Mono" font-weight="bold" font-size="14.00">Field</text>
<text text-anchor="start" x="251.22" y="-558.96" font-family="Roboto Mono" font-size="14.00">:: int64</text>
</g>
<!-- &#45;5484008958369800757&#45;&gt;&#45;7502551159562270300 -->
<g id="edge11" class="edge">
<title>&#45;5484008958369800757&#45;&gt;&#45;7502551159562270300</title>
<path fill="none" stroke="black" d="M219.95,-488.75C229.09,-503.21 238.86,-518.67 247.41,-532.2"/>
<polygon fill="black" stroke="black" points="244.29,-533.81 252.59,-540.39 250.21,-530.07 244.29,-533.81"/>
<text text-anchor="start" x="242.47" y="-512.47" font-family="Comic Sans MS" font-size="12.00">.rel</text>
</g>
<!-- 5717551922363058637 -->
<g id="node3" class="node">
<title>5717551922363058637</title>
<polygon fill="none" stroke="green" points="317.79,-683.3 290.13,-712.7 234.81,-712.7 207.16,-683.3 234.81,-653.91 290.13,-653.91 317.79,-683.3"/>
<text text-anchor="start" x="236.6" y="-685" font-family="Roboto Mono" font-weight="bold" font-size="14.00">SortKey</text>
<text text-anchor="start" x="242.22" y="-671" font-family="Roboto Mono" font-size="14.00">:: int64</text>
</g>
<!-- 5717551922363058637&#45;&gt;&#45;3071186171462862504 -->
<g id="edge2" class="edge">
<title>5717551922363058637&#45;&gt;&#45;3071186171462862504</title>
<path fill="none" stroke="black" d="M246.2,-713.14C239.1,-725.73 230.48,-741 222.06,-755.92"/>
<polygon fill="black" stroke="black" points="219.18,-753.9 217.31,-764.33 225.27,-757.34 219.18,-753.9"/>
<text text-anchor="start" x="236.47" y="-736.55" font-family="Comic Sans MS" font-size="12.00">.fields[&#39;count&#39;]</text>
</g>
<!-- &#45;7760141781440704319 -->
<g id="node4" class="node">
<title>&#45;7760141781440704319</title>
<polygon fill="none" stroke="green" points="297.14,-109.41 226.3,-218.82 84.64,-218.82 13.81,-109.41 84.64,0 226.3,0 297.14,-109.41"/>
<text text-anchor="start" x="76.72" y="-160.11" font-family="Roboto Mono" font-style="italic" font-size="14.00">penguins</text>
<text text-anchor="start" x="131.47" y="-160.11" font-family="Roboto Mono" font-size="14.00">: </text>
<text text-anchor="start" x="138.97" y="-160.11" font-family="Roboto Mono" font-weight="bold" font-size="14.00">DatabaseTable</text>
<text text-anchor="start" x="76.72" y="-146.11" font-family="Roboto Mono" font-style="italic" font-size="14.00">species</text>
<text text-anchor="start" x="122.47" y="-146.11" font-family="Roboto Mono" font-size="14.00">: string</text>
<text text-anchor="start" x="76.72" y="-132.11" font-family="Roboto Mono" font-style="italic" font-size="14.00">island</text>
<text text-anchor="start" x="111.97" y="-132.11" font-family="Roboto Mono" font-size="14.00">: string</text>
<text text-anchor="start" x="76.72" y="-118.11" font-family="Roboto Mono" font-style="italic" font-size="14.00">bill_length_mm</text>
<text text-anchor="start" x="168.97" y="-118.11" font-family="Roboto Mono" font-size="14.00">: float64</text>
<text text-anchor="start" x="76.72" y="-104.11" font-family="Roboto Mono" font-style="italic" font-size="14.00">bill_depth_mm</text>
<text text-anchor="start" x="165.97" y="-104.11" font-family="Roboto Mono" font-size="14.00">: float64</text>
<text text-anchor="start" x="76.72" y="-90.11" font-family="Roboto Mono" font-style="italic" font-size="14.00">flipper_length_mm</text>
<text text-anchor="start" x="189.22" y="-90.11" font-family="Roboto Mono" font-size="14.00">: int64</text>
<text text-anchor="start" x="76.72" y="-76.11" font-family="Roboto Mono" font-style="italic" font-size="14.00">body_mass_g</text>
<text text-anchor="start" x="161.47" y="-76.11" font-family="Roboto Mono" font-size="14.00">: int64</text>
<text text-anchor="start" x="76.72" y="-62.11" font-family="Roboto Mono" font-style="italic" font-size="14.00">sex</text>
<text text-anchor="start" x="97.72" y="-62.11" font-family="Roboto Mono" font-size="14.00">: string</text>
<text text-anchor="start" x="123.97" y="-48.11" font-family="Roboto Mono" font-style="italic" font-size="14.00">year</text>
<text text-anchor="start" x="150.22" y="-48.11" font-family="Roboto Mono" font-size="14.00">: int64</text>
</g>
<!-- &#45;7760141781440704319&#45;&gt;&#45;5484008958369800757 -->
<g id="edge3" class="edge">
<title>&#45;7760141781440704319&#45;&gt;&#45;5484008958369800757</title>
<path fill="none" stroke="black" d="M60.92,-182.69C17.51,-225.04 -18.54,-280.04 10.47,-330.86 32.06,-368.68 73.29,-394.19 110.52,-410.53"/>
<polygon fill="black" stroke="black" points="108.93,-413.66 119.5,-414.31 111.64,-407.2 108.93,-413.66"/>
</g>
<!-- &#45;485279062329012364 -->
<g id="node5" class="node">
<title>&#45;485279062329012364</title>
<polygon fill="none" stroke="green" points="183.73,-301.46 142.6,-330.86 60.34,-330.86 19.21,-301.46 60.34,-272.07 142.6,-272.07 183.73,-301.46"/>
<text text-anchor="start" x="59.1" y="-303.16" font-family="Roboto Mono" font-style="italic" font-size="14.00">species</text>
<text text-anchor="start" x="104.85" y="-303.16" font-family="Roboto Mono" font-size="14.00">: </text>
<text text-anchor="start" x="112.35" y="-303.16" font-family="Roboto Mono" font-weight="bold" font-size="14.00">Field</text>
<text text-anchor="start" x="79.35" y="-289.16" font-family="Roboto Mono" font-size="14.00">:: string</text>
</g>
<!-- &#45;7760141781440704319&#45;&gt;&#45;485279062329012364 -->
<g id="edge8" class="edge">
<title>&#45;7760141781440704319&#45;&gt;&#45;485279062329012364</title>
<path fill="none" stroke="black" d="M124.53,-219.31C120.31,-234.17 116.22,-248.57 112.68,-261.01"/>
<polygon fill="black" stroke="black" points="109.39,-259.8 110.02,-270.38 116.12,-261.72 109.39,-259.8"/>
<text text-anchor="start" x="119.47" y="-242.67" font-family="Comic Sans MS" font-size="12.00">.rel</text>
</g>
<!-- 7605832804775029112 -->
<g id="node6" class="node">
<title>7605832804775029112</title>
<polygon fill="none" stroke="green" points="349.16,-301.46 312.32,-330.86 238.63,-330.86 201.78,-301.46 238.63,-272.07 312.32,-272.07 349.16,-301.46"/>
<text text-anchor="start" x="238.35" y="-303.16" font-family="Roboto Mono" font-style="italic" font-size="14.00">island</text>
<text text-anchor="start" x="273.6" y="-303.16" font-family="Roboto Mono" font-size="14.00">: </text>
<text text-anchor="start" x="281.1" y="-303.16" font-family="Roboto Mono" font-weight="bold" font-size="14.00">Field</text>
<text text-anchor="start" x="253.35" y="-289.16" font-family="Roboto Mono" font-size="14.00">:: string</text>
</g>
<!-- &#45;7760141781440704319&#45;&gt;7605832804775029112 -->
<g id="edge9" class="edge">
<title>&#45;7760141781440704319&#45;&gt;7605832804775029112</title>
<path fill="none" stroke="black" d="M224.23,-219.31C233.9,-234.63 243.26,-249.45 251.28,-262.14"/>
<polygon fill="black" stroke="black" points="248.29,-263.97 256.59,-270.56 254.21,-260.23 248.29,-263.97"/>
<text text-anchor="start" x="243.47" y="-242.67" font-family="Comic Sans MS" font-size="12.00">.rel</text>
</g>
<!-- 2445119826414888655 -->
<g id="node7" class="node">
<title>2445119826414888655</title>
<polygon fill="none" stroke="green" points="499.81,-301.46 466.64,-330.86 400.3,-330.86 367.13,-301.46 400.3,-272.07 466.64,-272.07 499.81,-301.46"/>
<text text-anchor="start" x="400.85" y="-303.16" font-family="Roboto Mono" font-weight="bold" font-size="14.00">CountStar</text>
<text text-anchor="start" x="413.22" y="-289.16" font-family="Roboto Mono" font-size="14.00">:: int64</text>
</g>
<!-- &#45;7760141781440704319&#45;&gt;2445119826414888655 -->
<g id="edge10" class="edge">
<title>&#45;7760141781440704319&#45;&gt;2445119826414888655</title>
<path fill="none" stroke="black" d="M253.49,-177.42C298.83,-208.42 350.57,-243.79 386.9,-268.63"/>
<polygon fill="black" stroke="black" points="384.78,-271.41 395.01,-274.17 388.73,-265.63 384.78,-271.41"/>
<text text-anchor="start" x="359.47" y="-242.67" font-family="Comic Sans MS" font-size="12.00">.arg</text>
</g>
<!-- &#45;485279062329012364&#45;&gt;&#45;5484008958369800757 -->
<g id="edge4" class="edge">
<title>&#45;485279062329012364&#45;&gt;&#45;5484008958369800757</title>
<path fill="none" stroke="black" d="M120.13,-331.3C128.36,-344.01 138.35,-359.45 148.09,-374.51"/>
<polygon fill="black" stroke="black" points="144.92,-376.04 153.29,-382.54 150.79,-372.24 144.92,-376.04"/>
<text text-anchor="start" x="142.47" y="-354.71" font-family="Comic Sans MS" font-size="12.00">.fields[&#39;species&#39;]</text>
</g>
<!-- 7605832804775029112&#45;&gt;&#45;5484008958369800757 -->
<g id="edge5" class="edge">
<title>7605832804775029112&#45;&gt;&#45;5484008958369800757</title>
<path fill="none" stroke="black" d="M259.72,-331.06C253.38,-342.17 245.83,-354.89 238.47,-366.11 236.61,-368.95 234.67,-371.84 232.69,-374.73"/>
<polygon fill="black" stroke="black" points="229.95,-372.54 227.11,-382.75 235.7,-376.54 229.95,-372.54"/>
<text text-anchor="start" x="249.47" y="-354.71" font-family="Comic Sans MS" font-size="12.00">.fields[&#39;island&#39;]</text>
</g>
<!-- 2445119826414888655&#45;&gt;&#45;5484008958369800757 -->
<g id="edge6" class="edge">
<title>2445119826414888655&#45;&gt;&#45;5484008958369800757</title>
<path fill="none" stroke="black" d="M396.95,-328.24C379.09,-340.37 357.06,-354.65 336.47,-366.11 312.05,-379.7 284.49,-393.04 259.77,-404.32"/>
<polygon fill="black" stroke="black" points="258.42,-401.09 250.75,-408.4 261.3,-407.47 258.42,-401.09"/>
</g>
<!-- &#45;7502551159562270300&#45;&gt;5717551922363058637 -->
<g id="edge7" class="edge">
<title>&#45;7502551159562270300&#45;&gt;5717551922363058637</title>
<path fill="none" stroke="black" d="M269.13,-600.89C268.1,-613.52 266.87,-628.6 265.74,-642.32"/>
<polygon fill="black" stroke="black" points="262.28,-641.68 264.96,-651.93 269.26,-642.25 262.28,-641.68"/>
<text text-anchor="start" x="268.47" y="-624.51" font-family="Comic Sans MS" font-size="12.00">.expr</text>
</g>
</g>
</svg>
