<?xml version="1.0" encoding="UTF-8" standalone="no"?>
<!DOCTYPE svg PUBLIC "-//W3C//DTD SVG 1.1//EN"
 "http://www.w3.org/Graphics/SVG/1.1/DTD/svg11.dtd">
<!-- Generated by graphviz version 12.1.0 (0)
 -->
<!-- Pages: 1 -->
<svg width="851pt" height="1107pt"
 viewBox="0.00 0.00 850.53 1107.38" xmlns="http://www.w3.org/2000/svg" xmlns:xlink="http://www.w3.org/1999/xlink">
<g id="graph0" class="graph" transform="scale(1 1) rotate(0) translate(4 1103.38)">
<polygon fill="white" stroke="none" points="-4,4 -4,-1103.38 846.53,-1103.38 846.53,4 -4,4"/>
<!-- 511244726171035693 -->
<g id="node1" class="node">
<title>511244726171035693</title>
<polygon fill="none" stroke="green" points="511.59,-1035.7 454.53,-1099.38 340.43,-1099.38 283.38,-1035.7 340.43,-972.01 454.53,-972.01 511.59,-1035.7"/>
<text text-anchor="start" x="335.61" y="-1058.4" font-family="Roboto Mono" font-weight="bold" font-size="14.00">Project</text>
<text text-anchor="start" x="335.61" y="-1044.4" font-family="Roboto Mono" font-style="italic" font-size="14.00">a</text>
<text text-anchor="start" x="343.86" y="-1044.4" font-family="Roboto Mono" font-size="14.00">: int64</text>
<text text-anchor="start" x="335.61" y="-1030.4" font-family="Roboto Mono" font-style="italic" font-size="14.00">b</text>
<text text-anchor="start" x="343.86" y="-1030.4" font-family="Roboto Mono" font-size="14.00">: int64</text>
<text text-anchor="start" x="335.61" y="-1016.4" font-family="Roboto Mono" font-style="italic" font-size="14.00">c</text>
<text text-anchor="start" x="341.61" y="-1016.4" font-family="Roboto Mono" font-size="14.00">: string</text>
<text text-anchor="start" x="335.61" y="-1002.4" font-family="Roboto Mono" font-style="italic" font-size="14.00">arrays</text>
<text text-anchor="start" x="375.36" y="-1002.4" font-family="Roboto Mono" font-size="14.00">: array&lt;int8&gt;</text>
</g>
<!-- 7361000381965760267 -->
<g id="node2" class="node">
<title>7361000381965760267</title>
<polygon fill="none" stroke="green" points="375.05,-754.47 341.26,-806.72 273.7,-806.72 239.92,-754.47 273.7,-702.21 341.26,-702.21 375.05,-754.47"/>
<text text-anchor="start" x="274.11" y="-770.17" font-family="Roboto Mono" font-weight="bold" font-size="14.00">JoinChain</text>
<text text-anchor="start" x="274.11" y="-756.17" font-family="Roboto Mono" font-style="italic" font-size="14.00">a</text>
<text text-anchor="start" x="282.36" y="-756.17" font-family="Roboto Mono" font-size="14.00">: int64</text>
<text text-anchor="start" x="274.11" y="-742.17" font-family="Roboto Mono" font-style="italic" font-size="14.00">b</text>
<text text-anchor="start" x="282.36" y="-742.17" font-family="Roboto Mono" font-size="14.00">: int64</text>
<text text-anchor="start" x="281.23" y="-728.17" font-family="Roboto Mono" font-style="italic" font-size="14.00">c</text>
<text text-anchor="start" x="287.23" y="-728.17" font-family="Roboto Mono" font-size="14.00">: string</text>
</g>
<!-- 7361000381965760267&#45;&gt;511244726171035693 -->
<g id="edge1" class="edge">
<title>7361000381965760267&#45;&gt;511244726171035693</title>
<path fill="none" stroke="black" d="M361.44,-776.41C396.6,-793.22 439.68,-820.58 460.48,-859.97 477.47,-892.15 467.24,-929.9 450.49,-962.07"/>
<polygon fill="black" stroke="black" points="447.59,-960.08 445.84,-970.53 453.72,-963.45 447.59,-960.08"/>
</g>
<!-- 4787136451292018196 -->
<g id="node3" class="node">
<title>4787136451292018196</title>
<polygon fill="none" stroke="green" points="199.96,-889.37 173.22,-918.76 119.74,-918.76 93,-889.37 119.74,-859.97 173.22,-859.97 199.96,-889.37"/>
<text text-anchor="start" x="121.73" y="-891.07" font-family="Roboto Mono" font-style="italic" font-size="14.00">a</text>
<text text-anchor="start" x="129.98" y="-891.07" font-family="Roboto Mono" font-size="14.00">: </text>
<text text-anchor="start" x="137.48" y="-891.07" font-family="Roboto Mono" font-weight="bold" font-size="14.00">Field</text>
<text text-anchor="start" x="123.61" y="-877.07" font-family="Roboto Mono" font-size="14.00">:: int64</text>
</g>
<!-- 7361000381965760267&#45;&gt;4787136451292018196 -->
<g id="edge11" class="edge">
<title>7361000381965760267&#45;&gt;4787136451292018196</title>
<path fill="none" stroke="black" d="M263.49,-791.78C239.05,-811.95 208.92,-836.83 185.35,-856.28"/>
<polygon fill="black" stroke="black" points="183.32,-853.42 177.84,-862.48 187.78,-858.82 183.32,-853.42"/>
<text text-anchor="start" x="222.15" y="-830.57" font-family="Comic Sans MS" font-size="12.00">.rel</text>
</g>
<!-- 8490586696881106734 -->
<g id="node4" class="node">
<title>8490586696881106734</title>
<polygon fill="none" stroke="green" points="324.96,-889.37 298.22,-918.76 244.74,-918.76 218,-889.37 244.74,-859.97 298.22,-859.97 324.96,-889.37"/>
<text text-anchor="start" x="246.73" y="-891.07" font-family="Roboto Mono" font-style="italic" font-size="14.00">b</text>
<text text-anchor="start" x="254.98" y="-891.07" font-family="Roboto Mono" font-size="14.00">: </text>
<text text-anchor="start" x="262.48" y="-891.07" font-family="Roboto Mono" font-weight="bold" font-size="14.00">Field</text>
<text text-anchor="start" x="248.61" y="-877.07" font-family="Roboto Mono" font-size="14.00">:: int64</text>
</g>
<!-- 7361000381965760267&#45;&gt;8490586696881106734 -->
<g id="edge12" class="edge">
<title>7361000381965760267&#45;&gt;8490586696881106734</title>
<path fill="none" stroke="black" d="M293.56,-806.85C289.8,-820.75 285.78,-835.57 282.22,-848.72"/>
<polygon fill="black" stroke="black" points="278.86,-847.74 279.62,-858.31 285.62,-849.57 278.86,-847.74"/>
<text text-anchor="start" x="288.4" y="-830.57" font-family="Comic Sans MS" font-size="12.00">.rel</text>
</g>
<!-- 7344431602745331828 -->
<g id="node5" class="node">
<title>7344431602745331828</title>
<polygon fill="none" stroke="green" points="451.57,-889.37 424.53,-918.76 370.43,-918.76 343.39,-889.37 370.43,-859.97 424.53,-859.97 451.57,-889.37"/>
<text text-anchor="start" x="372.36" y="-891.07" font-family="Roboto Mono" font-style="italic" font-size="14.00">c</text>
<text text-anchor="start" x="378.36" y="-891.07" font-family="Roboto Mono" font-size="14.00">: </text>
<text text-anchor="start" x="385.86" y="-891.07" font-family="Roboto Mono" font-weight="bold" font-size="14.00">Field</text>
<text text-anchor="start" x="372.36" y="-877.07" font-family="Roboto Mono" font-size="14.00">:: string</text>
</g>
<!-- 7361000381965760267&#45;&gt;7344431602745331828 -->
<g id="edge13" class="edge">
<title>7361000381965760267&#45;&gt;7344431602745331828</title>
<path fill="none" stroke="black" d="M342.02,-806.47C351.83,-820.96 362.35,-836.49 371.56,-850.08"/>
<polygon fill="black" stroke="black" points="368.65,-852.03 377.15,-858.35 374.44,-848.11 368.65,-852.03"/>
<text text-anchor="start" x="365.8" y="-830.57" font-family="Comic Sans MS" font-size="12.00">.rel</text>
</g>
<!-- 4787136451292018196&#45;&gt;511244726171035693 -->
<g id="edge2" class="edge">
<title>4787136451292018196&#45;&gt;511244726171035693</title>
<path fill="none" stroke="black" d="M180.7,-910.55C202.08,-923.12 230.21,-939.59 255.23,-954.01 273.58,-964.58 293.32,-975.85 312.07,-986.5"/>
<polygon fill="black" stroke="black" points="310.33,-989.54 320.75,-991.43 313.79,-983.45 310.33,-989.54"/>
<text text-anchor="start" x="255.23" y="-942.61" font-family="Comic Sans MS" font-size="12.00">.fields[&#39;a&#39;]</text>
</g>
<!-- 8490586696881106734&#45;&gt;511244726171035693 -->
<g id="edge3" class="edge">
<title>8490586696881106734&#45;&gt;511244726171035693</title>
<path fill="none" stroke="black" d="M296.68,-919.23C307.76,-931.93 321.33,-947.47 334.88,-962.99"/>
<polygon fill="black" stroke="black" points="332.17,-965.21 341.39,-970.44 337.45,-960.61 332.17,-965.21"/>
<text text-anchor="start" x="326.94" y="-942.61" font-family="Comic Sans MS" font-size="12.00">.fields[&#39;b&#39;]</text>
</g>
<!-- 7344431602745331828&#45;&gt;511244726171035693 -->
<g id="edge4" class="edge">
<title>7344431602745331828&#45;&gt;511244726171035693</title>
<path fill="none" stroke="black" d="M397.48,-919.23C397.48,-931.22 397.48,-945.75 397.48,-960.4"/>
<polygon fill="black" stroke="black" points="393.98,-960.07 397.48,-970.07 400.98,-960.07 393.98,-960.07"/>
<text text-anchor="start" x="397.48" y="-942.61" font-family="Comic Sans MS" font-size="12.00">.fields[&#39;c&#39;]</text>
</g>
<!-- &#45;2591881309482610233 -->
<g id="node6" class="node">
<title>&#45;2591881309482610233</title>
<polygon fill="none" stroke="green" points="708.19,-889.37 665.84,-918.76 581.12,-918.76 538.77,-889.37 581.12,-859.97 665.84,-859.97 708.19,-889.37"/>
<text text-anchor="start" x="579.61" y="-891.07" font-family="Roboto Mono" font-weight="bold" font-size="14.00">Array</text>
<text text-anchor="start" x="579.61" y="-877.07" font-family="Roboto Mono" font-size="14.00">:: array&lt;int8&gt;</text>
</g>
<!-- &#45;2591881309482610233&#45;&gt;511244726171035693 -->
<g id="edge5" class="edge">
<title>&#45;2591881309482610233&#45;&gt;511244726171035693</title>
<path fill="none" stroke="black" d="M579.91,-918.2C551.42,-936.39 513.31,-960.72 479.3,-982.45"/>
<polygon fill="black" stroke="black" points="477.64,-979.35 471.1,-987.68 481.41,-985.25 477.64,-979.35"/>
</g>
<!-- &#45;2929480341410870757 -->
<g id="node7" class="node">
<title>&#45;2929480341410870757</title>
<polygon fill="none" stroke="green" points="213.54,-193.77 167.51,-234.59 75.45,-234.59 29.42,-193.77 75.45,-152.94 167.51,-152.94 213.54,-193.77"/>
<text text-anchor="start" x="73.11" y="-202.47" font-family="Roboto Mono" font-weight="bold" font-size="14.00">JoinReference</text>
<text text-anchor="start" x="73.11" y="-188.47" font-family="Roboto Mono" font-style="italic" font-size="14.00">a</text>
<text text-anchor="start" x="81.36" y="-188.47" font-family="Roboto Mono" font-size="14.00">: int64</text>
<text text-anchor="start" x="94.11" y="-174.47" font-family="Roboto Mono" font-style="italic" font-size="14.00">b</text>
<text text-anchor="start" x="102.36" y="-174.47" font-family="Roboto Mono" font-size="14.00">: string</text>
</g>
<!-- &#45;2929480341410870757&#45;&gt;7361000381965760267 -->
<g id="edge6" class="edge">
<title>&#45;2929480341410870757&#45;&gt;7361000381965760267</title>
<path fill="none" stroke="black" d="M121.48,-234.9C121.48,-261.26 121.48,-296.52 121.48,-327.67 121.48,-327.67 121.48,-327.67 121.48,-636.82 121.48,-693.4 184.02,-723.58 236.57,-738.96"/>
<polygon fill="black" stroke="black" points="235.57,-742.32 246.15,-741.62 237.45,-735.57 235.57,-742.32"/>
</g>
<!-- &#45;6529606821075168568 -->
<g id="node9" class="node">
<title>&#45;6529606821075168568</title>
<polygon fill="none" stroke="green" points="106.96,-405.45 80.22,-434.85 26.74,-434.85 0,-405.45 26.74,-376.06 80.22,-376.06 106.96,-405.45"/>
<text text-anchor="start" x="28.73" y="-407.15" font-family="Roboto Mono" font-style="italic" font-size="14.00">a</text>
<text text-anchor="start" x="36.98" y="-407.15" font-family="Roboto Mono" font-size="14.00">: </text>
<text text-anchor="start" x="44.48" y="-407.15" font-family="Roboto Mono" font-weight="bold" font-size="14.00">Field</text>
<text text-anchor="start" x="30.61" y="-393.15" font-family="Roboto Mono" font-size="14.00">:: int64</text>
</g>
<!-- &#45;2929480341410870757&#45;&gt;&#45;6529606821075168568 -->
<g id="edge20" class="edge">
<title>&#45;2929480341410870757&#45;&gt;&#45;6529606821075168568</title>
<path fill="none" stroke="black" d="M101.98,-234.95C97.79,-244.37 93.62,-254.45 90.23,-264.02 78.45,-297.33 68.55,-336.27 62.01,-364.69"/>
<polygon fill="black" stroke="black" points="58.62,-363.79 59.83,-374.31 65.45,-365.33 58.62,-363.79"/>
<text text-anchor="start" x="90.23" y="-269.87" font-family="Comic Sans MS" font-size="12.00">.rel</text>
</g>
<!-- 3486477288705709244 -->
<g id="node19" class="node">
<title>3486477288705709244</title>
<polygon fill="none" stroke="green" points="257.57,-328.67 230.53,-358.06 176.43,-358.06 149.39,-328.67 176.43,-299.27 230.53,-299.27 257.57,-328.67"/>
<text text-anchor="start" x="178.36" y="-330.37" font-family="Roboto Mono" font-style="italic" font-size="14.00">b</text>
<text text-anchor="start" x="186.61" y="-330.37" font-family="Roboto Mono" font-size="14.00">: </text>
<text text-anchor="start" x="194.11" y="-330.37" font-family="Roboto Mono" font-weight="bold" font-size="14.00">Field</text>
<text text-anchor="start" x="178.36" y="-316.37" font-family="Roboto Mono" font-size="14.00">:: string</text>
</g>
<!-- &#45;2929480341410870757&#45;&gt;3486477288705709244 -->
<g id="edge26" class="edge">
<title>&#45;2929480341410870757&#45;&gt;3486477288705709244</title>
<path fill="none" stroke="black" d="M146.31,-235C156.94,-252.25 169.31,-272.29 179.82,-289.32"/>
<polygon fill="black" stroke="black" points="176.74,-291 184.97,-297.67 182.7,-287.32 176.74,-291"/>
<text text-anchor="start" x="174.62" y="-269.87" font-family="Comic Sans MS" font-size="12.00">.rel</text>
</g>
<!-- &#45;4772721939967849966 -->
<g id="node8" class="node">
<title>&#45;4772721939967849966</title>
<polygon fill="none" stroke="green" points="367.08,-635.82 337.28,-665.21 277.68,-665.21 247.88,-635.82 277.68,-606.42 337.28,-606.42 367.08,-635.82"/>
<text text-anchor="start" x="278.98" y="-637.52" font-family="Roboto Mono" font-weight="bold" font-size="14.00">JoinLink</text>
<text text-anchor="start" x="296.98" y="-623.52" font-family="Roboto Mono" font-size="14.00">:: ∅</text>
</g>
<!-- &#45;4772721939967849966&#45;&gt;7361000381965760267 -->
<g id="edge7" class="edge">
<title>&#45;4772721939967849966&#45;&gt;7361000381965760267</title>
<path fill="none" stroke="black" d="M307.48,-665.65C307.48,-673.25 307.48,-681.76 307.48,-690.4"/>
<polygon fill="black" stroke="black" points="303.98,-690.27 307.48,-700.27 310.98,-690.27 303.98,-690.27"/>
</g>
<!-- &#45;6529606821075168568&#45;&gt;7361000381965760267 -->
<g id="edge8" class="edge">
<title>&#45;6529606821075168568&#45;&gt;7361000381965760267</title>
<path fill="none" stroke="black" d="M48.78,-435.31C41.22,-493.04 33.93,-622.46 107.48,-684.21 143.7,-714.62 194.05,-731.96 235.17,-741.68"/>
<polygon fill="black" stroke="black" points="234.23,-745.06 244.75,-743.84 235.76,-738.23 234.23,-745.06"/>
<text text-anchor="start" x="52.56" y="-556.26" font-family="Comic Sans MS" font-size="12.00">.fields[&#39;a&#39;]</text>
</g>
<!-- 42746313920786380 -->
<g id="node10" class="node">
<title>42746313920786380</title>
<polygon fill="none" stroke="green" points="583.12,-559.03 557.3,-588.42 505.66,-588.42 479.84,-559.03 505.66,-529.64 557.3,-529.64 583.12,-559.03"/>
<text text-anchor="start" x="507.86" y="-560.73" font-family="Roboto Mono" font-style="italic" font-size="14.00">c</text>
<text text-anchor="start" x="513.86" y="-560.73" font-family="Roboto Mono" font-size="14.00">: </text>
<text text-anchor="start" x="521.36" y="-560.73" font-family="Roboto Mono" font-weight="bold" font-size="14.00">Field</text>
<text text-anchor="start" x="508.61" y="-546.73" font-family="Roboto Mono" font-size="14.00">:: int64</text>
</g>
<!-- 42746313920786380&#45;&gt;7361000381965760267 -->
<g id="edge9" class="edge">
<title>42746313920786380&#45;&gt;7361000381965760267</title>
<path fill="none" stroke="black" d="M526.25,-588.83C519.73,-616.85 505.9,-658.8 478.48,-684.21 460.23,-701.12 448.69,-693.25 425.48,-702.21 407.19,-709.28 387.57,-717.52 369.69,-725.31"/>
<polygon fill="black" stroke="black" points="368.52,-722 360.76,-729.22 371.33,-728.41 368.52,-722"/>
<text text-anchor="start" x="521.49" y="-633.04" font-family="Comic Sans MS" font-size="12.00">.fields[&#39;c&#39;]</text>
</g>
<!-- &#45;6955465165695050766 -->
<g id="node11" class="node">
<title>&#45;6955465165695050766</title>
<polygon fill="none" stroke="green" points="516.57,-405.45 489.53,-434.85 435.43,-434.85 408.39,-405.45 435.43,-376.06 489.53,-376.06 516.57,-405.45"/>
<text text-anchor="start" x="437.36" y="-407.15" font-family="Roboto Mono" font-style="italic" font-size="14.00">d</text>
<text text-anchor="start" x="445.61" y="-407.15" font-family="Roboto Mono" font-size="14.00">: </text>
<text text-anchor="start" x="453.11" y="-407.15" font-family="Roboto Mono" font-weight="bold" font-size="14.00">Field</text>
<text text-anchor="start" x="437.36" y="-393.15" font-family="Roboto Mono" font-size="14.00">:: string</text>
</g>
<!-- &#45;6955465165695050766&#45;&gt;7361000381965760267 -->
<g id="edge10" class="edge">
<title>&#45;6955465165695050766&#45;&gt;7361000381965760267</title>
<path fill="none" stroke="black" d="M461.43,-435.34C459.2,-472.22 452.24,-537.38 430.48,-588.42 412.42,-630.79 381.37,-672.33 354.99,-703.14"/>
<polygon fill="black" stroke="black" points="352.6,-700.55 348.68,-710.39 357.88,-705.15 352.6,-700.55"/>
</g>
<!-- &#45;1831918764287897510 -->
<g id="node12" class="node">
<title>&#45;1831918764287897510</title>
<polygon fill="none" stroke="green" points="558.53,-754.47 527.51,-783.86 465.45,-783.86 434.43,-754.47 465.45,-725.07 527.51,-725.07 558.53,-754.47"/>
<text text-anchor="start" x="466.48" y="-756.17" font-family="Roboto Mono" font-style="italic" font-size="14.00">1</text>
<text text-anchor="start" x="473.98" y="-756.17" font-family="Roboto Mono" font-size="14.00">: </text>
<text text-anchor="start" x="481.48" y="-756.17" font-family="Roboto Mono" font-weight="bold" font-size="14.00">Literal</text>
<text text-anchor="start" x="477.73" y="-742.17" font-family="Roboto Mono" font-size="14.00">:: int8</text>
</g>
<!-- &#45;1831918764287897510&#45;&gt;&#45;2591881309482610233 -->
<g id="edge14" class="edge">
<title>&#45;1831918764287897510&#45;&gt;&#45;2591881309482610233</title>
<path fill="none" stroke="black" d="M522.13,-784.3C537.45,-801.31 557.43,-823.12 575.73,-841.97 578.81,-845.15 582.04,-848.41 585.3,-851.66"/>
<polygon fill="black" stroke="black" points="582.76,-854.07 592.34,-858.61 587.68,-849.09 582.76,-854.07"/>
<text text-anchor="start" x="575.73" y="-830.57" font-family="Comic Sans MS" font-size="12.00">.exprs[0]</text>
</g>
<!-- 8897995832974920526 -->
<g id="node13" class="node">
<title>8897995832974920526</title>
<polygon fill="none" stroke="green" points="700.53,-754.47 669.51,-783.86 607.45,-783.86 576.43,-754.47 607.45,-725.07 669.51,-725.07 700.53,-754.47"/>
<text text-anchor="start" x="608.48" y="-756.17" font-family="Roboto Mono" font-style="italic" font-size="14.00">2</text>
<text text-anchor="start" x="615.98" y="-756.17" font-family="Roboto Mono" font-size="14.00">: </text>
<text text-anchor="start" x="623.48" y="-756.17" font-family="Roboto Mono" font-weight="bold" font-size="14.00">Literal</text>
<text text-anchor="start" x="619.73" y="-742.17" font-family="Roboto Mono" font-size="14.00">:: int8</text>
</g>
<!-- 8897995832974920526&#45;&gt;&#45;2591881309482610233 -->
<g id="edge15" class="edge">
<title>8897995832974920526&#45;&gt;&#45;2591881309482610233</title>
<path fill="none" stroke="black" d="M635.23,-784.3C633.11,-803.03 630.33,-827.69 628,-848.3"/>
<polygon fill="black" stroke="black" points="624.54,-847.75 626.9,-858.08 631.5,-848.54 624.54,-847.75"/>
<text text-anchor="start" x="630.53" y="-830.57" font-family="Comic Sans MS" font-size="12.00">.exprs[1]</text>
</g>
<!-- &#45;2174396480001610615 -->
<g id="node14" class="node">
<title>&#45;2174396480001610615</title>
<polygon fill="none" stroke="green" points="842.53,-754.47 811.51,-783.86 749.45,-783.86 718.43,-754.47 749.45,-725.07 811.51,-725.07 842.53,-754.47"/>
<text text-anchor="start" x="750.48" y="-756.17" font-family="Roboto Mono" font-style="italic" font-size="14.00">3</text>
<text text-anchor="start" x="757.98" y="-756.17" font-family="Roboto Mono" font-size="14.00">: </text>
<text text-anchor="start" x="765.48" y="-756.17" font-family="Roboto Mono" font-weight="bold" font-size="14.00">Literal</text>
<text text-anchor="start" x="761.73" y="-742.17" font-family="Roboto Mono" font-size="14.00">:: int8</text>
</g>
<!-- &#45;2174396480001610615&#45;&gt;&#45;2591881309482610233 -->
<g id="edge16" class="edge">
<title>&#45;2174396480001610615&#45;&gt;&#45;2591881309482610233</title>
<path fill="none" stroke="black" d="M749.51,-784.08C730.7,-801.21 706.04,-823.23 683.48,-841.97 679.33,-845.42 674.97,-848.95 670.58,-852.45"/>
<polygon fill="black" stroke="black" points="668.44,-849.68 662.76,-858.62 672.77,-855.18 668.44,-849.68"/>
<text text-anchor="start" x="702.45" y="-830.57" font-family="Comic Sans MS" font-size="12.00">.exprs[2]</text>
</g>
<!-- 2120785185921457421 -->
<g id="node15" class="node">
<title>2120785185921457421</title>
<polygon fill="none" stroke="green" points="239.26,-52.26 180.37,-93.08 62.59,-93.08 3.7,-52.26 62.59,-11.43 180.37,-11.43 239.26,-52.26"/>
<text text-anchor="start" x="57.36" y="-60.96" font-family="Roboto Mono" font-style="italic" font-size="14.00">left</text>
<text text-anchor="start" x="76.86" y="-60.96" font-family="Roboto Mono" font-size="14.00">: </text>
<text text-anchor="start" x="84.36" y="-60.96" font-family="Roboto Mono" font-weight="bold" font-size="14.00">UnboundTable</text>
<text text-anchor="start" x="57.36" y="-46.96" font-family="Roboto Mono" font-style="italic" font-size="14.00">a</text>
<text text-anchor="start" x="65.61" y="-46.96" font-family="Roboto Mono" font-size="14.00">: int64</text>
<text text-anchor="start" x="94.11" y="-32.96" font-family="Roboto Mono" font-style="italic" font-size="14.00">b</text>
<text text-anchor="start" x="102.36" y="-32.96" font-family="Roboto Mono" font-size="14.00">: string</text>
</g>
<!-- 2120785185921457421&#45;&gt;&#45;2929480341410870757 -->
<g id="edge17" class="edge">
<title>2120785185921457421&#45;&gt;&#45;2929480341410870757</title>
<path fill="none" stroke="black" d="M121.48,-93.23C121.48,-108.27 121.48,-125.57 121.48,-141.49"/>
<polygon fill="black" stroke="black" points="117.98,-141.27 121.48,-151.27 124.98,-141.27 117.98,-141.27"/>
</g>
<!-- &#45;4595533915988552430 -->
<g id="node16" class="node">
<title>&#45;4595533915988552430</title>
<polygon fill="none" stroke="green" points="488.54,-193.77 442.51,-246.02 350.45,-246.02 304.42,-193.77 350.45,-141.51 442.51,-141.51 488.54,-193.77"/>
<text text-anchor="start" x="348.11" y="-209.47" font-family="Roboto Mono" font-weight="bold" font-size="14.00">JoinReference</text>
<text text-anchor="start" x="348.11" y="-195.47" font-family="Roboto Mono" font-style="italic" font-size="14.00">b</text>
<text text-anchor="start" x="356.36" y="-195.47" font-family="Roboto Mono" font-size="14.00">: string</text>
<text text-anchor="start" x="348.11" y="-181.47" font-family="Roboto Mono" font-style="italic" font-size="14.00">c</text>
<text text-anchor="start" x="354.11" y="-181.47" font-family="Roboto Mono" font-size="14.00">: int64</text>
<text text-anchor="start" x="369.11" y="-167.47" font-family="Roboto Mono" font-style="italic" font-size="14.00">d</text>
<text text-anchor="start" x="377.36" y="-167.47" font-family="Roboto Mono" font-size="14.00">: string</text>
</g>
<!-- &#45;4595533915988552430&#45;&gt;&#45;4772721939967849966 -->
<g id="edge18" class="edge">
<title>&#45;4595533915988552430&#45;&gt;&#45;4772721939967849966</title>
<path fill="none" stroke="black" d="M347.34,-243.22C333.46,-259.69 319.86,-279.08 311.48,-299.27 270.09,-399.02 286.54,-530.25 298.77,-595.07"/>
<polygon fill="black" stroke="black" points="295.27,-595.38 300.63,-604.52 302.14,-594.03 295.27,-595.38"/>
<text text-anchor="start" x="290.6" y="-402.68" font-family="Comic Sans MS" font-size="12.00">.table</text>
</g>
<!-- &#45;4595533915988552430&#45;&gt;42746313920786380 -->
<g id="edge21" class="edge">
<title>&#45;4595533915988552430&#45;&gt;42746313920786380</title>
<path fill="none" stroke="black" d="M442.79,-246.44C470.23,-280.59 502.49,-327.82 517.48,-376.06 532.11,-423.16 534.13,-480.26 533.46,-517.78"/>
<polygon fill="black" stroke="black" points="529.96,-517.64 533.2,-527.73 536.96,-517.82 529.96,-517.64"/>
<text text-anchor="start" x="510.26" y="-325.89" font-family="Comic Sans MS" font-size="12.00">.rel</text>
</g>
<!-- &#45;4595533915988552430&#45;&gt;&#45;6955465165695050766 -->
<g id="edge22" class="edge">
<title>&#45;4595533915988552430&#45;&gt;&#45;6955465165695050766</title>
<path fill="none" stroke="black" d="M418.38,-246.35C425.02,-263.06 432,-281.79 437.48,-299.27 444.14,-320.53 450,-344.69 454.37,-364.49"/>
<polygon fill="black" stroke="black" points="450.91,-365.07 456.44,-374.11 457.76,-363.6 450.91,-365.07"/>
<text text-anchor="start" x="431.25" y="-269.87" font-family="Comic Sans MS" font-size="12.00">.rel</text>
</g>
<!-- &#45;3209455974927806842 -->
<g id="node20" class="node">
<title>&#45;3209455974927806842</title>
<polygon fill="none" stroke="green" points="428.57,-328.67 401.53,-358.06 347.43,-358.06 320.39,-328.67 347.43,-299.27 401.53,-299.27 428.57,-328.67"/>
<text text-anchor="start" x="349.36" y="-330.37" font-family="Roboto Mono" font-style="italic" font-size="14.00">b</text>
<text text-anchor="start" x="357.61" y="-330.37" font-family="Roboto Mono" font-size="14.00">: </text>
<text text-anchor="start" x="365.11" y="-330.37" font-family="Roboto Mono" font-weight="bold" font-size="14.00">Field</text>
<text text-anchor="start" x="349.36" y="-316.37" font-family="Roboto Mono" font-size="14.00">:: string</text>
</g>
<!-- &#45;4595533915988552430&#45;&gt;&#45;3209455974927806842 -->
<g id="edge27" class="edge">
<title>&#45;4595533915988552430&#45;&gt;&#45;3209455974927806842</title>
<path fill="none" stroke="black" d="M387.97,-246.15C385.67,-260.05 383.22,-274.87 381.04,-288.02"/>
<polygon fill="black" stroke="black" points="377.64,-287.14 379.46,-297.58 384.55,-288.28 377.64,-287.14"/>
<text text-anchor="start" x="384.82" y="-269.87" font-family="Comic Sans MS" font-size="12.00">.rel</text>
</g>
<!-- 885210908538958830 -->
<g id="node17" class="node">
<title>885210908538958830</title>
<polygon fill="none" stroke="green" points="436.21,-482.24 403.34,-511.64 337.62,-511.64 304.75,-482.24 337.62,-452.85 403.34,-452.85 436.21,-482.24"/>
<text text-anchor="start" x="338.23" y="-483.94" font-family="Roboto Mono" font-weight="bold" font-size="14.00">Equals</text>
<text text-anchor="start" x="338.23" y="-469.94" font-family="Roboto Mono" font-size="14.00">:: boolean</text>
</g>
<!-- 885210908538958830&#45;&gt;&#45;4772721939967849966 -->
<g id="edge19" class="edge">
<title>885210908538958830&#45;&gt;&#45;4772721939967849966</title>
<path fill="none" stroke="black" d="M358.48,-512.11C348.63,-535.81 334.58,-569.62 323.72,-595.74"/>
<polygon fill="black" stroke="black" points="320.62,-594.08 320.01,-604.66 327.08,-596.77 320.62,-594.08"/>
<text text-anchor="start" x="350.1" y="-556.26" font-family="Comic Sans MS" font-size="12.00">.predicates[0]</text>
</g>
<!-- &#45;7875477310629451016 -->
<g id="node18" class="node">
<title>&#45;7875477310629451016</title>
<polygon fill="none" stroke="green" points="522.83,-52.26 459.66,-104.51 333.3,-104.51 270.13,-52.26 333.3,0 459.66,0 522.83,-52.26"/>
<text text-anchor="start" x="327.11" y="-67.96" font-family="Roboto Mono" font-style="italic" font-size="14.00">right</text>
<text text-anchor="start" x="357.11" y="-67.96" font-family="Roboto Mono" font-size="14.00">: </text>
<text text-anchor="start" x="364.61" y="-67.96" font-family="Roboto Mono" font-weight="bold" font-size="14.00">UnboundTable</text>
<text text-anchor="start" x="327.11" y="-53.96" font-family="Roboto Mono" font-style="italic" font-size="14.00">b</text>
<text text-anchor="start" x="335.36" y="-53.96" font-family="Roboto Mono" font-size="14.00">: string</text>
<text text-anchor="start" x="327.11" y="-39.96" font-family="Roboto Mono" font-style="italic" font-size="14.00">c</text>
<text text-anchor="start" x="333.11" y="-39.96" font-family="Roboto Mono" font-size="14.00">: int64</text>
<text text-anchor="start" x="369.11" y="-25.96" font-family="Roboto Mono" font-style="italic" font-size="14.00">d</text>
<text text-anchor="start" x="377.36" y="-25.96" font-family="Roboto Mono" font-size="14.00">: string</text>
</g>
<!-- &#45;7875477310629451016&#45;&gt;&#45;4595533915988552430 -->
<g id="edge23" class="edge">
<title>&#45;7875477310629451016&#45;&gt;&#45;4595533915988552430</title>
<path fill="none" stroke="black" d="M396.48,-104.81C396.48,-113.03 396.48,-121.61 396.48,-130.05"/>
<polygon fill="black" stroke="black" points="392.98,-129.91 396.48,-139.91 399.98,-129.91 392.98,-129.91"/>
</g>
<!-- 3486477288705709244&#45;&gt;885210908538958830 -->
<g id="edge24" class="edge">
<title>3486477288705709244&#45;&gt;885210908538958830</title>
<path fill="none" stroke="black" d="M205.56,-358.24C208.73,-381.68 216.7,-414.26 236.73,-434.85 254.26,-452.87 279.14,-463.9 302.69,-470.64"/>
<polygon fill="black" stroke="black" points="301.72,-474.01 312.28,-473.15 303.5,-467.24 301.72,-474.01"/>
<text text-anchor="start" x="236.73" y="-402.68" font-family="Comic Sans MS" font-size="12.00">.left</text>
</g>
<!-- &#45;3209455974927806842&#45;&gt;885210908538958830 -->
<g id="edge25" class="edge">
<title>&#45;3209455974927806842&#45;&gt;885210908538958830</title>
<path fill="none" stroke="black" d="M370.4,-358.08C369.7,-364.01 369.09,-370.23 368.73,-376.06 367.4,-397.6 367.67,-421.66 368.35,-441.33"/>
<polygon fill="black" stroke="black" points="364.84,-441.28 368.74,-451.13 371.84,-441 364.84,-441.28"/>
<text text-anchor="start" x="368.73" y="-402.68" font-family="Comic Sans MS" font-size="12.00">.right</text>
</g>
</g>
</svg>
