<?xml version="1.0" encoding="UTF-8" standalone="no"?>
<!DOCTYPE svg PUBLIC "-//W3C//DTD SVG 1.1//EN"
 "http://www.w3.org/Graphics/SVG/1.1/DTD/svg11.dtd">
<!-- Generated by graphviz version 12.1.0 (0)
 -->
<!-- Pages: 1 -->
<svg width="228pt" height="358pt"
 viewBox="0.00 0.00 227.75 358.00" xmlns="http://www.w3.org/2000/svg" xmlns:xlink="http://www.w3.org/1999/xlink">
<g id="graph0" class="graph" transform="scale(1 1) rotate(0) translate(4 354)">
<polygon fill="white" stroke="none" points="-4,4 -4,-354 223.75,-354 223.75,4 -4,4"/>
<!-- 5955280033137103432 -->
<g id="node1" class="node">
<title>5955280033137103432</title>
<polygon fill="none" stroke="black" points="165.88,-350 26.13,-350 26.13,-314 165.88,-314 165.88,-350"/>
<text text-anchor="start" x="34.13" y="-333.7" font-family="Deja Vu Sans Mono" font-weight="bold" font-size="14.00">Project</text>
<text text-anchor="start" x="34.13" y="-319.7" font-family="Deja Vu Sans Mono" font-style="italic" font-size="14.00">lowered</text>
<text text-anchor="start" x="91.88" y="-319.7" font-family="Deja Vu Sans Mono" font-size="14.00">: string</text>
</g>
<!-- &#45;8490988273985862053 -->
<g id="node2" class="node">
<title>&#45;8490988273985862053</title>
<polygon fill="none" stroke="black" points="214,-134 0,-134 0,0 214,0 214,-134"/>
<text text-anchor="start" x="8" y="-117.7" font-family="Deja Vu Sans Mono" font-style="italic" font-size="14.00">penguins</text>
<text text-anchor="start" x="74" y="-117.7" font-family="Deja Vu Sans Mono" font-size="14.00">: </text>
<text text-anchor="start" x="90.5" y="-117.7" font-family="Deja Vu Sans Mono" font-weight="bold" font-size="14.00">DatabaseTable</text>
<text text-anchor="start" x="8" y="-103.7" font-family="Deja Vu Sans Mono" font-style="italic" font-size="14.00">species</text>
<text text-anchor="start" x="65.75" y="-103.7" font-family="Deja Vu Sans Mono" font-size="14.00">: string</text>
<text text-anchor="start" x="8" y="-89.7" font-family="Deja Vu Sans Mono" font-style="italic" font-size="14.00">island</text>
<text text-anchor="start" x="57.5" y="-89.7" font-family="Deja Vu Sans Mono" font-size="14.00">: string</text>
<text text-anchor="start" x="8" y="-75.7" font-family="Deja Vu Sans Mono" font-style="italic" font-size="14.00">bill_length_mm</text>
<text text-anchor="start" x="123.5" y="-75.7" font-family="Deja Vu Sans Mono" font-size="14.00">: float64</text>
<text text-anchor="start" x="8" y="-61.7" font-family="Deja Vu Sans Mono" font-style="italic" font-size="14.00">bill_depth_mm</text>
<text text-anchor="start" x="115.25" y="-61.7" font-family="Deja Vu Sans Mono" font-size="14.00">: float64</text>
<text text-anchor="start" x="8" y="-47.7" font-family="Deja Vu Sans Mono" font-style="italic" font-size="14.00">flipper_length_mm</text>
<text text-anchor="start" x="148.25" y="-47.7" font-family="Deja Vu Sans Mono" font-size="14.00">: int64</text>
<text text-anchor="start" x="8" y="-33.7" font-family="Deja Vu Sans Mono" font-style="italic" font-size="14.00">body_mass_g</text>
<text text-anchor="start" x="98.75" y="-33.7" font-family="Deja Vu Sans Mono" font-size="14.00">: int64</text>
<text text-anchor="start" x="8" y="-19.7" font-family="Deja Vu Sans Mono" font-style="italic" font-size="14.00">sex</text>
<text text-anchor="start" x="32.75" y="-19.7" font-family="Deja Vu Sans Mono" font-size="14.00">: string</text>
<text text-anchor="start" x="61.63" y="-5.7" font-family="Deja Vu Sans Mono" font-style="italic" font-size="14.00">year</text>
<text text-anchor="start" x="94.63" y="-5.7" font-family="Deja Vu Sans Mono" font-size="14.00">: int64</text>
</g>
<!-- &#45;8490988273985862053&#45;&gt;5955280033137103432 -->
<g id="edge1" class="edge">
<title>&#45;8490988273985862053&#45;&gt;5955280033137103432</title>
<path fill="none" stroke="black" d="M86.02,-134.41C83.1,-146.15 80.57,-158.35 79,-170 72.75,-216.39 81.83,-270.56 88.93,-302.76"/>
<polygon fill="black" stroke="black" points="85.43,-303.14 91.09,-312.09 92.25,-301.56 85.43,-303.14"/>
</g>
<!-- 4536202266594279062 -->
<g id="node4" class="node">
<title>4536202266594279062</title>
<polygon fill="none" stroke="black" points="219.75,-206 88.25,-206 88.25,-170 219.75,-170 219.75,-206"/>
<text text-anchor="start" x="96.25" y="-189.7" font-family="Deja Vu Sans Mono" font-style="italic" font-size="14.00">species</text>
<text text-anchor="start" x="154" y="-189.7" font-family="Deja Vu Sans Mono" font-size="14.00">: </text>
<text text-anchor="start" x="170.5" y="-189.7" font-family="Deja Vu Sans Mono" font-weight="bold" font-size="14.00">Field</text>
<text text-anchor="start" x="116.88" y="-175.7" font-family="Deja Vu Sans Mono" font-size="14.00">:: string</text>
</g>
<!-- &#45;8490988273985862053&#45;&gt;4536202266594279062 -->
<g id="edge4" class="edge">
<title>&#45;8490988273985862053&#45;&gt;4536202266594279062</title>
<path fill="none" stroke="black" d="M133.25,-134.46C136.66,-143.08 139.98,-151.51 142.94,-159.01"/>
<polygon fill="black" stroke="black" points="139.63,-160.14 146.56,-168.15 146.14,-157.57 139.63,-160.14"/>
</g>
<!-- &#45;7657494878694874355 -->
<g id="node3" class="node">
<title>&#45;7657494878694874355</title>
<polygon fill="none" stroke="black" points="188.12,-278 97.88,-278 97.88,-242 188.12,-242 188.12,-278"/>
<text text-anchor="start" x="105.88" y="-261.7" font-family="Deja Vu Sans Mono" font-weight="bold" font-size="14.00">Lowercase</text>
<text text-anchor="start" x="105.88" y="-247.7" font-family="Deja Vu Sans Mono" font-size="14.00">:: string</text>
</g>
<!-- &#45;7657494878694874355&#45;&gt;5955280033137103432 -->
<g id="edge2" class="edge">
<title>&#45;7657494878694874355&#45;&gt;5955280033137103432</title>
<path fill="none" stroke="black" d="M131.38,-278.3C126.09,-286.19 119.7,-295.7 113.82,-304.45"/>
<polygon fill="black" stroke="black" points="111,-302.39 108.33,-312.64 116.81,-306.29 111,-302.39"/>
</g>
<!-- 4536202266594279062&#45;&gt;&#45;7657494878694874355 -->
<g id="edge3" class="edge">
<title>4536202266594279062&#45;&gt;&#45;7657494878694874355</title>
<path fill="none" stroke="black" d="M151.28,-206.3C150.12,-213.68 148.74,-222.48 147.44,-230.75"/>
<polygon fill="black" stroke="black" points="144.02,-229.98 145.92,-240.4 150.93,-231.07 144.02,-229.98"/>
</g>
</g>
</svg>
