<?xml version="1.0" encoding="UTF-8" standalone="no"?>
<!DOCTYPE svg PUBLIC "-//W3C//DTD SVG 1.1//EN"
 "http://www.w3.org/Graphics/SVG/1.1/DTD/svg11.dtd">
<!-- Generated by graphviz version 12.1.0 (0)
 -->
<!-- Pages: 1 -->
<svg width="484pt" height="386pt"
 viewBox="0.00 0.00 483.57 386.00" xmlns="http://www.w3.org/2000/svg" xmlns:xlink="http://www.w3.org/1999/xlink">
<g id="graph0" class="graph" transform="scale(1 1) rotate(0) translate(4 382)">
<polygon fill="white" stroke="none" points="-4,4 -4,-382 479.57,-382 479.57,4 -4,4"/>
<!-- 8447107844321255892 -->
<g id="node1" class="node">
<title>8447107844321255892</title>
<polygon fill="none" stroke="black" points="259.95,-378 45.95,-378 45.95,-314 259.95,-314 259.95,-378"/>
<text text-anchor="start" x="53.95" y="-361.7" font-family="Deja Vu Sans Mono" font-weight="bold" font-size="14.00">Aggregate</text>
<text text-anchor="start" x="53.95" y="-347.7" font-family="Deja Vu Sans Mono" font-style="italic" font-size="14.00">species</text>
<text text-anchor="start" x="111.7" y="-347.7" font-family="Deja Vu Sans Mono" font-size="14.00">: string</text>
<text text-anchor="start" x="53.95" y="-333.7" font-family="Deja Vu Sans Mono" font-style="italic" font-size="14.00">bill_depth_avg</text>
<text text-anchor="start" x="169.45" y="-333.7" font-family="Deja Vu Sans Mono" font-size="14.00">: float64</text>
<text text-anchor="start" x="53.95" y="-319.7" font-family="Deja Vu Sans Mono" font-style="italic" font-size="14.00">bill_length_avg</text>
<text text-anchor="start" x="177.7" y="-319.7" font-family="Deja Vu Sans Mono" font-size="14.00">: float64</text>
</g>
<!-- &#45;8490988273985862053 -->
<g id="node2" class="node">
<title>&#45;8490988273985862053</title>
<polygon fill="none" stroke="black" points="224.95,-134 10.95,-134 10.95,0 224.95,0 224.95,-134"/>
<text text-anchor="start" x="18.95" y="-117.7" font-family="Deja Vu Sans Mono" font-style="italic" font-size="14.00">penguins</text>
<text text-anchor="start" x="84.95" y="-117.7" font-family="Deja Vu Sans Mono" font-size="14.00">: </text>
<text text-anchor="start" x="101.45" y="-117.7" font-family="Deja Vu Sans Mono" font-weight="bold" font-size="14.00">DatabaseTable</text>
<text text-anchor="start" x="18.95" y="-103.7" font-family="Deja Vu Sans Mono" font-style="italic" font-size="14.00">species</text>
<text text-anchor="start" x="76.7" y="-103.7" font-family="Deja Vu Sans Mono" font-size="14.00">: string</text>
<text text-anchor="start" x="18.95" y="-89.7" font-family="Deja Vu Sans Mono" font-style="italic" font-size="14.00">island</text>
<text text-anchor="start" x="68.45" y="-89.7" font-family="Deja Vu Sans Mono" font-size="14.00">: string</text>
<text text-anchor="start" x="18.95" y="-75.7" font-family="Deja Vu Sans Mono" font-style="italic" font-size="14.00">bill_length_mm</text>
<text text-anchor="start" x="134.45" y="-75.7" font-family="Deja Vu Sans Mono" font-size="14.00">: float64</text>
<text text-anchor="start" x="18.95" y="-61.7" font-family="Deja Vu Sans Mono" font-style="italic" font-size="14.00">bill_depth_mm</text>
<text text-anchor="start" x="126.2" y="-61.7" font-family="Deja Vu Sans Mono" font-size="14.00">: float64</text>
<text text-anchor="start" x="18.95" y="-47.7" font-family="Deja Vu Sans Mono" font-style="italic" font-size="14.00">flipper_length_mm</text>
<text text-anchor="start" x="159.2" y="-47.7" font-family="Deja Vu Sans Mono" font-size="14.00">: int64</text>
<text text-anchor="start" x="18.95" y="-33.7" font-family="Deja Vu Sans Mono" font-style="italic" font-size="14.00">body_mass_g</text>
<text text-anchor="start" x="109.7" y="-33.7" font-family="Deja Vu Sans Mono" font-size="14.00">: int64</text>
<text text-anchor="start" x="18.95" y="-19.7" font-family="Deja Vu Sans Mono" font-style="italic" font-size="14.00">sex</text>
<text text-anchor="start" x="43.7" y="-19.7" font-family="Deja Vu Sans Mono" font-size="14.00">: string</text>
<text text-anchor="start" x="72.57" y="-5.7" font-family="Deja Vu Sans Mono" font-style="italic" font-size="14.00">year</text>
<text text-anchor="start" x="105.57" y="-5.7" font-family="Deja Vu Sans Mono" font-size="14.00">: int64</text>
</g>
<!-- &#45;8490988273985862053&#45;&gt;8447107844321255892 -->
<g id="edge1" class="edge">
<title>&#45;8490988273985862053&#45;&gt;8447107844321255892</title>
<path fill="none" stroke="black" d="M48.75,-134.1C13.12,-176.37 -17.29,-231.74 11.95,-278 19.37,-289.75 29.48,-299.48 40.9,-307.53"/>
<polygon fill="black" stroke="black" points="38.75,-310.31 49.05,-312.81 42.56,-304.43 38.75,-310.31"/>
</g>
<!-- 4536202266594279062 -->
<g id="node3" class="node">
<title>4536202266594279062</title>
<polygon fill="none" stroke="black" points="152.7,-278 21.2,-278 21.2,-242 152.7,-242 152.7,-278"/>
<text text-anchor="start" x="29.2" y="-261.7" font-family="Deja Vu Sans Mono" font-style="italic" font-size="14.00">species</text>
<text text-anchor="start" x="86.95" y="-261.7" font-family="Deja Vu Sans Mono" font-size="14.00">: </text>
<text text-anchor="start" x="103.45" y="-261.7" font-family="Deja Vu Sans Mono" font-weight="bold" font-size="14.00">Field</text>
<text text-anchor="start" x="49.82" y="-247.7" font-family="Deja Vu Sans Mono" font-size="14.00">:: string</text>
</g>
<!-- &#45;8490988273985862053&#45;&gt;4536202266594279062 -->
<g id="edge5" class="edge">
<title>&#45;8490988273985862053&#45;&gt;4536202266594279062</title>
<path fill="none" stroke="black" d="M87.82,-134.43C83.72,-146.07 80.17,-158.23 77.95,-170 74.97,-185.72 76.6,-190.06 77.95,-206 78.62,-214.03 79.87,-222.67 81.22,-230.6"/>
<polygon fill="black" stroke="black" points="77.77,-231.21 83.02,-240.42 84.66,-229.95 77.77,-231.21"/>
</g>
<!-- &#45;8485187632713719794 -->
<g id="node6" class="node">
<title>&#45;8485187632713719794</title>
<polygon fill="none" stroke="black" points="268.45,-206 87.45,-206 87.45,-170 268.45,-170 268.45,-206"/>
<text text-anchor="start" x="95.45" y="-189.7" font-family="Deja Vu Sans Mono" font-style="italic" font-size="14.00">bill_depth_mm</text>
<text text-anchor="start" x="202.7" y="-189.7" font-family="Deja Vu Sans Mono" font-size="14.00">: </text>
<text text-anchor="start" x="219.2" y="-189.7" font-family="Deja Vu Sans Mono" font-weight="bold" font-size="14.00">Field</text>
<text text-anchor="start" x="136.7" y="-175.7" font-family="Deja Vu Sans Mono" font-size="14.00">:: float64</text>
</g>
<!-- &#45;8490988273985862053&#45;&gt;&#45;8485187632713719794 -->
<g id="edge8" class="edge">
<title>&#45;8490988273985862053&#45;&gt;&#45;8485187632713719794</title>
<path fill="none" stroke="black" d="M151.45,-134.46C155.91,-143.29 160.25,-151.91 164.1,-159.53"/>
<polygon fill="black" stroke="black" points="160.84,-160.86 168.47,-168.21 167.09,-157.7 160.84,-160.86"/>
</g>
<!-- 3044415900601345363 -->
<g id="node7" class="node">
<title>3044415900601345363</title>
<polygon fill="none" stroke="black" points="475.57,-206 286.32,-206 286.32,-170 475.57,-170 475.57,-206"/>
<text text-anchor="start" x="294.32" y="-189.7" font-family="Deja Vu Sans Mono" font-style="italic" font-size="14.00">bill_length_mm</text>
<text text-anchor="start" x="409.82" y="-189.7" font-family="Deja Vu Sans Mono" font-size="14.00">: </text>
<text text-anchor="start" x="426.32" y="-189.7" font-family="Deja Vu Sans Mono" font-weight="bold" font-size="14.00">Field</text>
<text text-anchor="start" x="339.7" y="-175.7" font-family="Deja Vu Sans Mono" font-size="14.00">:: float64</text>
</g>
<!-- &#45;8490988273985862053&#45;&gt;3044415900601345363 -->
<g id="edge9" class="edge">
<title>&#45;8490988273985862053&#45;&gt;3044415900601345363</title>
<path fill="none" stroke="black" d="M225.3,-116.57C262.4,-133.36 302.15,-151.35 332.2,-164.94"/>
<polygon fill="black" stroke="black" points="330.47,-168 341.02,-168.94 333.35,-161.62 330.47,-168"/>
</g>
<!-- 4536202266594279062&#45;&gt;8447107844321255892 -->
<g id="edge2" class="edge">
<title>4536202266594279062&#45;&gt;8447107844321255892</title>
<path fill="none" stroke="black" d="M100.62,-278.4C106.69,-286.13 114.1,-295.56 121.41,-304.87"/>
<polygon fill="black" stroke="black" points="118.48,-306.8 127.41,-312.51 123.99,-302.48 118.48,-306.8"/>
</g>
<!-- 1939204287926844172 -->
<g id="node4" class="node">
<title>1939204287926844172</title>
<polygon fill="none" stroke="black" points="269.2,-278 170.7,-278 170.7,-242 269.2,-242 269.2,-278"/>
<text text-anchor="start" x="178.7" y="-261.7" font-family="Deja Vu Sans Mono" font-weight="bold" font-size="14.00">Mean</text>
<text text-anchor="start" x="178.7" y="-247.7" font-family="Deja Vu Sans Mono" font-size="14.00">:: float64</text>
</g>
<!-- 1939204287926844172&#45;&gt;8447107844321255892 -->
<g id="edge3" class="edge">
<title>1939204287926844172&#45;&gt;8447107844321255892</title>
<path fill="none" stroke="black" d="M206.06,-278.4C199.9,-286.13 192.38,-295.56 184.96,-304.87"/>
<polygon fill="black" stroke="black" points="182.36,-302.51 178.86,-312.51 187.83,-306.88 182.36,-302.51"/>
</g>
<!-- 4486334214448426485 -->
<g id="node5" class="node">
<title>4486334214448426485</title>
<polygon fill="none" stroke="black" points="408.2,-278 309.7,-278 309.7,-242 408.2,-242 408.2,-278"/>
<text text-anchor="start" x="317.7" y="-261.7" font-family="Deja Vu Sans Mono" font-weight="bold" font-size="14.00">Mean</text>
<text text-anchor="start" x="317.7" y="-247.7" font-family="Deja Vu Sans Mono" font-size="14.00">:: float64</text>
</g>
<!-- 4486334214448426485&#45;&gt;8447107844321255892 -->
<g id="edge4" class="edge">
<title>4486334214448426485&#45;&gt;8447107844321255892</title>
<path fill="none" stroke="black" d="M316.26,-278.4C294.31,-287.36 266.71,-298.61 240.49,-309.3"/>
<polygon fill="black" stroke="black" points="239.47,-305.94 231.53,-312.95 242.11,-312.42 239.47,-305.94"/>
</g>
<!-- &#45;8485187632713719794&#45;&gt;1939204287926844172 -->
<g id="edge6" class="edge">
<title>&#45;8485187632713719794&#45;&gt;1939204287926844172</title>
<path fill="none" stroke="black" d="M188.33,-206.3C193.01,-214.1 198.64,-223.49 203.85,-232.17"/>
<polygon fill="black" stroke="black" points="200.76,-233.82 208.9,-240.6 206.76,-230.22 200.76,-233.82"/>
</g>
<!-- 3044415900601345363&#45;&gt;4486334214448426485 -->
<g id="edge7" class="edge">
<title>3044415900601345363&#45;&gt;4486334214448426485</title>
<path fill="none" stroke="black" d="M375.51,-206.3C373.16,-213.76 370.36,-222.68 367.73,-231.03"/>
<polygon fill="black" stroke="black" points="364.43,-229.86 364.77,-240.45 371.11,-231.96 364.43,-229.86"/>
</g>
</g>
</svg>
